solid Untitled-58795b62
facet normal 0.0 -1.0 0.0
  outer loop
    vertex 7.5000000000000036 0.0 16.499999999999996
    vertex 0.0 0.0 8.459899447643692e-15
    vertex 7.4999999999999964 0.0 0.0
  endloop
endfacet
facet normal 0.0 -1.0 0.0
  outer loop
    vertex 0.0 0.0 8.459899447643692e-15
    vertex 7.5000000000000036 0.0 16.499999999999996
    vertex 3.844923782570647e-15 0.0 16.499999999999996
  endloop
endfacet
facet normal -1.0 0.0 4.2327252813834093e-16
  outer loop
    vertex 3.844923782570647e-15 14.999999999969218 16.499999999999996
    vertex 0.00018194729316414862 10.00000000530099 7.500000547078828
    vertex 3.844923782570647e-15 9.999999999999998 16.499999999999996
  endloop
endfacet
facet normal -1.0 0.0 4.2327252813834093e-16
  outer loop
    vertex 3.844923782570647e-15 2.499999999999967 16.499999999999996
    vertex 0.0 0.0 8.459899447643692e-15
    vertex 3.844923782570647e-15 0.0 16.499999999999996
  endloop
endfacet
facet normal -1.0 0.0 4.2327252813834093e-16
  outer loop
    vertex 0.0 0.0 8.459899447643692e-15
    vertex 3.844923782570647e-15 2.499999999999967 16.499999999999996
    vertex 0.00018194729316485362 5.000000005300982 7.500000547078828
  endloop
endfacet
facet normal -1.0 0.0 4.2327252813834093e-16
  outer loop
    vertex 0.0 0.0 8.459899447643692e-15
    vertex 0.00018194729316485362 5.000000005300982 7.500000547078828
    vertex 0.0 14.999999999969218 8.459899447643692e-15
  endloop
endfacet
facet normal -1.0 0.0 4.2327252813834093e-16
  outer loop
    vertex 0.00018194729316485362 5.000000005300982 7.500000547078828
    vertex 3.844923782570647e-15 2.499999999999967 16.499999999999996
    vertex 3.844923782570647e-15 4.999999999999968 16.499999999999996
  endloop
endfacet
facet normal -1.0 0.0 4.2327252813834093e-16
  outer loop
    vertex 0.0 14.999999999969218 8.459899447643692e-15
    vertex 0.00018194729316485362 5.000000005300982 7.500000547078828
    vertex 0.00018194729316414862 10.00000000530099 7.500000547078828
  endloop
endfacet
facet normal -1.0 0.0 4.2327252813834093e-16
  outer loop
    vertex 0.0 14.999999999969218 8.459899447643692e-15
    vertex 0.00018194729316414862 10.00000000530099 7.500000547078828
    vertex 3.844923782570647e-15 14.999999999969218 16.499999999999996
  endloop
endfacet
facet normal -0.999999933684198 1.2312959834529157e-11 -0.0003641862159199788
  outer loop
    vertex 4.999999834333628 12.499999999969218 16.500910465539796
    vertex 5.003095271231028 2.5000000052701976 7.500911012618626
    vertex 4.999999834210498 2.4999999999692184 16.500910465539796
  endloop
endfacet
facet normal -0.999999933684198 1.2312959834529157e-11 -0.0003641862159199788
  outer loop
    vertex 5.003095271231028 2.5000000052701976 7.500911012618626
    vertex 4.999999834333628 12.499999999969218 16.500910465539796
    vertex 5.003095271354159 12.500000005270197 7.50091101261862
  endloop
endfacet
facet normal 0.999999920255255 -0.00029134895155534594 0.00027313965763079573
  outer loop
    vertex 2.501638692269716 10.00000000530099 7.500000547078827
    vertex 2.500000000123133 12.5 16.499999999999996
    vertex 2.500000000123133 9.999999999999998 16.499999999999996
  endloop
endfacet
facet normal 0.999999920255255 -0.00029134895155534594 0.00027313965763079573
  outer loop
    vertex 2.500000000123133 12.5 16.499999999999996
    vertex 2.501638692269716 10.00000000530099 7.500000547078827
    vertex 2.50309543714366 12.50000000530098 7.500000547078832
  endloop
endfacet
facet normal 0.0 1.0 0.0
  outer loop
    vertex 3.844923782570647e-15 4.999999999999968 16.499999999999996
    vertex 2.503095437035923 5.000000005300982 7.500000547078828
    vertex 0.00018194729316485362 5.000000005300982 7.500000547078828
  endloop
endfacet
facet normal 0.0 1.0 0.0
  outer loop
    vertex 2.503095437035923 5.000000005300982 7.500000547078828
    vertex 3.844923782570647e-15 4.999999999999968 16.499999999999996
    vertex 2.5029134897273706 4.999999999999968 16.499999999999996
  endloop
endfacet
facet normal 0.0 1.0 0.0
  outer loop
    vertex 0.0 14.999999999969218 8.459899447643692e-15
    vertex 7.5000000000000036 14.999999999969218 16.499999999999996
    vertex 7.4999999999999964 14.999999999969218 0.0
  endloop
endfacet
facet normal 0.0 1.0 0.0
  outer loop
    vertex 7.5000000000000036 14.999999999969218 16.499999999999996
    vertex 0.0 14.999999999969218 8.459899447643692e-15
    vertex 3.844923782570647e-15 14.999999999969218 16.499999999999996
  endloop
endfacet
facet normal -3.28782417783266e-05 2.4052577380017075e-06 0.999999999456618
  outer loop
    vertex 7.5000000000000036 0.0 16.499999999999996
    vertex 3.844923782570647e-15 2.499999999999967 16.499999999999996
    vertex 3.844923782570647e-15 0.0 16.499999999999996
  endloop
endfacet
facet normal -3.28782417783266e-05 2.4052577380017075e-06 0.999999999456618
  outer loop
    vertex 3.844923782570647e-15 2.499999999999967 16.499999999999996
    vertex 7.5000000000000036 0.0 16.499999999999996
    vertex 2.5000000000000027 2.500000000000001 16.499999999999996
  endloop
endfacet
facet normal -3.28782417783266e-05 2.4052577380017075e-06 0.999999999456618
  outer loop
    vertex 3.844923782570647e-15 2.499999999999967 16.499999999999996
    vertex 2.5000000000000027 2.500000000000001 16.499999999999996
    vertex 3.844923782570647e-15 4.999999999999968 16.499999999999996
  endloop
endfacet
facet normal -3.28782417783266e-05 2.4052577380017075e-06 0.999999999456618
  outer loop
    vertex 2.5000000000000027 2.500000000000001 16.499999999999996
    vertex 7.5000000000000036 0.0 16.499999999999996
    vertex 4.999999834210498 2.4999999999692184 16.500910465539796
  endloop
endfacet
facet normal -3.28782417783266e-05 2.4052577380017075e-06 0.999999999456618
  outer loop
    vertex 4.999999834210498 2.4999999999692184 16.500910465539796
    vertex 7.5000000000000036 0.0 16.499999999999996
    vertex 4.999999834333628 12.499999999969218 16.500910465539796
  endloop
endfacet
facet normal -3.28782417783266e-05 2.4052577380017075e-06 0.999999999456618
  outer loop
    vertex 2.500000000123133 9.999999999999998 16.499999999999996
    vertex 3.844923782570647e-15 14.999999999969218 16.499999999999996
    vertex 3.844923782570647e-15 9.999999999999998 16.499999999999996
  endloop
endfacet
facet normal -3.28782417783266e-05 2.4052577380017075e-06 0.999999999456618
  outer loop
    vertex 3.844923782570647e-15 14.999999999969218 16.499999999999996
    vertex 2.500000000123133 9.999999999999998 16.499999999999996
    vertex 2.500000000123133 12.5 16.499999999999996
  endloop
endfacet
facet normal -3.28782417783266e-05 2.4052577380017075e-06 0.999999999456618
  outer loop
    vertex 3.844923782570647e-15 14.999999999969218 16.499999999999996
    vertex 2.500000000123133 12.5 16.499999999999996
    vertex 7.5000000000000036 14.999999999969218 16.499999999999996
  endloop
endfacet
facet normal -3.28782417783266e-05 2.4052577380017075e-06 0.999999999456618
  outer loop
    vertex 7.5000000000000036 14.999999999969218 16.499999999999996
    vertex 2.500000000123133 12.5 16.499999999999996
    vertex 4.999999834333628 12.499999999969218 16.500910465539796
  endloop
endfacet
facet normal -3.28782417783266e-05 2.4052577380017075e-06 0.999999999456618
  outer loop
    vertex 7.5000000000000036 14.999999999969218 16.499999999999996
    vertex 4.999999834333628 12.499999999969218 16.500910465539796
    vertex 7.5000000000000036 0.0 16.499999999999996
  endloop
endfacet
facet normal -3.28782417783266e-05 2.4052577380017075e-06 0.999999999456618
  outer loop
    vertex 7.5000000000000036 14.999999999969218 16.499999999999996
    vertex 7.5000000000000036 0.0 16.499999999999996
    vertex 7.5000000000000036 12.499999999969218 16.499999999999996
  endloop
endfacet
facet normal -3.28782417783266e-05 2.4052577380017075e-06 0.999999999456618
  outer loop
    vertex 2.5029134897273706 4.999999999999968 16.499999999999996
    vertex 3.844923782570647e-15 4.999999999999968 16.499999999999996
    vertex 2.5000000000000027 2.500000000000001 16.499999999999996
  endloop
endfacet
facet normal -4.2327252813834093e-16 0.0 -1.0
  outer loop
    vertex 7.4999999999999964 14.999999999969218 0.0
    vertex 0.0 0.0 8.459899447643692e-15
    vertex 0.0 14.999999999969218 8.459899447643692e-15
  endloop
endfacet
facet normal -4.2327252813834093e-16 0.0 -1.0
  outer loop
    vertex 0.0 0.0 8.459899447643692e-15
    vertex 7.4999999999999964 14.999999999969218 0.0
    vertex 7.4999999999999964 0.0 0.0
  endloop
endfacet
facet normal 0.9999998136526502 -0.0005826978399674566 0.0001820930870650231
  outer loop
    vertex 2.503095437020534 2.5000000053009805 7.500000547078825
    vertex 2.5029134897273706 4.999999999999968 16.499999999999996
    vertex 2.5000000000000027 2.500000000000001 16.499999999999996
  endloop
endfacet
facet normal 0.9999998136526502 -0.0005826978399674566 0.0001820930870650231
  outer loop
    vertex 2.5029134897273706 4.999999999999968 16.499999999999996
    vertex 2.503095437020534 2.5000000053009805 7.500000547078825
    vertex 2.503095437035923 5.000000005300982 7.500000547078828
  endloop
endfacet
facet normal 1.8316364973584278e-30 -1.0 2.8199666695562485e-15
  outer loop
    vertex 2.500000000123133 9.999999999999998 16.499999999999996
    vertex 0.00018194729316414862 10.00000000530099 7.500000547078828
    vertex 2.501638692269716 10.00000000530099 7.500000547078827
  endloop
endfacet
facet normal 1.8316364973584278e-30 -1.0 2.8199666695562485e-15
  outer loop
    vertex 0.00018194729316414862 10.00000000530099 7.500000547078828
    vertex 2.500000000123133 9.999999999999998 16.499999999999996
    vertex 3.844923782570647e-15 9.999999999999998 16.499999999999996
  endloop
endfacet
facet normal 1.2313102373333304e-11 1.0 2.543124526255064e-16
  outer loop
    vertex 2.5000000000000027 2.500000000000001 16.499999999999996
    vertex 5.003095271231028 2.5000000052701976 7.500911012618626
    vertex 2.503095437020534 2.5000000053009805 7.500000547078825
  endloop
endfacet
facet normal 1.2313102373333304e-11 1.0 2.543124526255064e-16
  outer loop
    vertex 5.003095271231028 2.5000000052701976 7.500911012618626
    vertex 2.5000000000000027 2.500000000000001 16.499999999999996
    vertex 4.999999834210498 2.4999999999692184 16.500910465539796
  endloop
endfacet
facet normal -1.2313102373333306e-11 -1.0 -2.5431245262671807e-16
  outer loop
    vertex 5.003095271354159 12.500000005270197 7.50091101261862
    vertex 2.500000000123133 12.5 16.499999999999996
    vertex 2.50309543714366 12.50000000530098 7.500000547078832
  endloop
endfacet
facet normal -1.2313102373333306e-11 -1.0 -2.5431245262671807e-16
  outer loop
    vertex 2.500000000123133 12.5 16.499999999999996
    vertex 5.003095271354159 12.500000005270197 7.50091101261862
    vertex 4.999999834333628 12.499999999969218 16.500910465539796
  endloop
endfacet
facet normal -0.00018194729316350217 -5.301013323583449e-09 0.9999999834475912
  outer loop
    vertex 5.003095271231028 2.5000000052701976 7.500911012618626
    vertex 2.503095437035923 5.000000005300982 7.500000547078828
    vertex 2.503095437020534 2.5000000053009805 7.500000547078825
  endloop
endfacet
facet normal -0.00018194729316350217 -5.301013323583449e-09 0.9999999834475912
  outer loop
    vertex 2.503095437035923 5.000000005300982 7.500000547078828
    vertex 5.003095271231028 2.5000000052701976 7.500911012618626
    vertex 2.50309543714366 12.50000000530098 7.500000547078832
  endloop
endfacet
facet normal -0.00018194729316350217 -5.301013323583449e-09 0.9999999834475912
  outer loop
    vertex 2.50309543714366 12.50000000530098 7.500000547078832
    vertex 5.003095271231028 2.5000000052701976 7.500911012618626
    vertex 5.003095271354159 12.500000005270197 7.50091101261862
  endloop
endfacet
facet normal -0.00018194729316350217 -5.301013323583449e-09 0.9999999834475912
  outer loop
    vertex 0.00018194729316485362 5.000000005300982 7.500000547078828
    vertex 2.501638692269716 10.00000000530099 7.500000547078827
    vertex 0.00018194729316414862 10.00000000530099 7.500000547078828
  endloop
endfacet
facet normal -0.00018194729316350217 -5.301013323583449e-09 0.9999999834475912
  outer loop
    vertex 2.501638692269716 10.00000000530099 7.500000547078827
    vertex 0.00018194729316485362 5.000000005300982 7.500000547078828
    vertex 2.503095437035923 5.000000005300982 7.500000547078828
  endloop
endfacet
facet normal -0.00018194729316350217 -5.301013323583449e-09 0.9999999834475912
  outer loop
    vertex 2.501638692269716 10.00000000530099 7.500000547078827
    vertex 2.503095437035923 5.000000005300982 7.500000547078828
    vertex 2.50309543714366 12.50000000530098 7.500000547078832
  endloop
endfacet
facet normal 1.0 -1.015335253932974e-33 -2.5673907444456745e-16
  outer loop
    vertex 7.4999999999999964 14.999999999969218 0.0
    vertex 7.5000000000000036 0.0 16.499999999999996
    vertex 7.4999999999999964 0.0 0.0
  endloop
endfacet
facet normal 1.0 -1.015335253932974e-33 -2.5673907444456745e-16
  outer loop
    vertex 7.5000000000000036 0.0 16.499999999999996
    vertex 7.4999999999999964 14.999999999969218 0.0
    vertex 7.5000000000000036 12.499999999969218 16.499999999999996
  endloop
endfacet
facet normal 1.0 -1.015335253932974e-33 -2.5673907444456745e-16
  outer loop
    vertex 7.5000000000000036 12.499999999969218 16.499999999999996
    vertex 7.4999999999999964 14.999999999969218 0.0
    vertex 7.5000000000000036 14.999999999969218 16.499999999999996
  endloop
endfacet
endsolid Untitled-58795b62
