solid Untitled-58797072
facet normal 0.38268343236506347 3.885780586188047e-16 -0.9238795325112976
  outer loop
    vertex 16.600012064825407 23.300002075260462 22.124167508796518
    vertex 16.985901570056317 20.500000010595954 22.2840082230227
    vertex 16.60001204222035 20.500000010595958 22.12416754701531
  endloop
endfacet
facet normal 0.38268343236506347 3.885780586188047e-16 -0.9238795325112976
  outer loop
    vertex 16.985901570056317 20.500000010595954 22.2840082230227
    vertex 16.600012064825407 23.300002075260462 22.124167508796518
    vertex 16.985901592661374 23.300002075260466 22.28400818480393
  endloop
endfacet
facet normal -0.6418351130734997 0.7668426746249377 5.551115123125783e-16
  outer loop
    vertex 3.0753787975412696 17.92462120245877 4.000000043608212
    vertex 9.7366509999995 23.500000010594682 4.3608215130608306e-08
    vertex 3.0753787975412696 17.924621202458766 4.36082116056502e-08
  endloop
endfacet
facet normal -0.6418351130734997 0.7668426746249377 5.551115123125783e-16
  outer loop
    vertex 9.7366509999995 23.500000010594682 4.3608215130608306e-08
    vertex 3.0753787975412696 17.92462120245877 4.000000043608212
    vertex 9.7366509999995 23.50000001059468 4.000000043608215
  endloop
endfacet
facet normal 3.7547981968215605e-08 2.695608110059311e-07 0.999999999999963
  outer loop
    vertex 20.999997541511423 20.499999471474265 25.000001230893034
    vertex 12.200010166800379 23.300016832212638 25.000000847269465
    vertex 9.73665623153859 20.500000481928762 25.000001184751504
  endloop
endfacet
facet normal 3.7547981968215605e-08 2.695608110059311e-07 0.999999999999963
  outer loop
    vertex 12.200010166800379 23.300016832212638 25.000000847269465
    vertex 20.999997541511423 20.499999471474265 25.000001230893034
    vertex 20.999999947509103 23.3000015309395 25.000000005389523
  endloop
endfacet
facet normal 3.7547981968215605e-08 2.695608110059311e-07 0.999999999999963
  outer loop
    vertex 9.73665623153859 20.500000481928762 25.000001184751504
    vertex 12.200011094710204 25.500013868582904 25.000000162921054
    vertex 9.736650924903534 25.50000049058783 25.000000000000085
  endloop
endfacet
facet normal 3.7547981968215605e-08 2.695608110059311e-07 0.999999999999963
  outer loop
    vertex 12.200011094710204 25.500013868582904 25.000000162921054
    vertex 9.73665623153859 20.500000481928762 25.000001184751504
    vertex 12.200010166800379 23.300016832212638 25.000000847269465
  endloop
endfacet
facet normal -0.38268343236509106 -0.9238795325112863 -3.885780586188048e-16
  outer loop
    vertex 7.782400026423528 0.3577788239647862 4.000000043608202
    vertex 5.250000000000014 1.4067332602633948 4.360820913817953e-08
    vertex 7.782400026423528 0.3577788239647975 4.360820490822981e-08
  endloop
endfacet
facet normal -0.38268343236509106 -0.9238795325112863 -3.885780586188048e-16
  outer loop
    vertex 5.250000000000014 1.4067332602633948 4.360820913817953e-08
    vertex 7.782400026423528 0.3577788239647862 4.000000043608202
    vertex 5.250000000000014 1.4067332602633893 4.000000043608205
  endloop
endfacet
facet normal 0.3826834323650854 0.9238795325112886 2.2204460492503126e-16
  outer loop
    vertex 7.350000000000002 5.044039956158029 4.000000043608212
    vertex 8.869440015854128 4.414667294378873 4.3608216188095735e-08
    vertex 7.350000000000002 5.044039956158034 4.3608211958146015e-08
  endloop
endfacet
facet normal 0.3826834323650854 0.9238795325112886 2.2204460492503126e-16
  outer loop
    vertex 8.869440015854128 4.414667294378873 4.3608216188095735e-08
    vertex 7.350000000000002 5.044039956158029 4.000000043608212
    vertex 8.869440015854128 4.41466729437887 4.000000043608217
  endloop
endfacet
facet normal -0.6087614290087221 -0.7933533402912342 -6.106226635438361e-16
  outer loop
    vertex 14.954772721475242 14.954772721475253 4.000000043608219
    vertex 13.650000000000004 15.955960043841964 4.36082218280287e-08
    vertex 14.954772721475242 14.954772721475257 4.360822041804546e-08
  endloop
endfacet
facet normal -0.6087614290087221 -0.7933533402912342 -6.106226635438361e-16
  outer loop
    vertex 13.650000000000004 15.955960043841964 4.36082218280287e-08
    vertex 14.954772721475242 14.954772721475253 4.000000043608219
    vertex 13.650000000000004 15.955960043841964 4.000000043608228
  endloop
endfacet
facet normal -0.38268343236508556 0.9238795325112885 2.7755575615628914e-16
  outer loop
    vertex 12.130559984145869 4.41466729437887 4.000000043608219
    vertex 13.650000000000015 5.044039956158046 4.3608217598078975e-08
    vertex 12.130559984145869 4.41466729437887 4.3608217598078975e-08
  endloop
endfacet
facet normal -0.38268343236508556 0.9238795325112885 2.7755575615628914e-16
  outer loop
    vertex 13.650000000000015 5.044039956158046 4.3608217598078975e-08
    vertex 12.130559984145869 4.41466729437887 4.000000043608219
    vertex 13.650000000000015 5.044039956158034 4.000000043608219
  endloop
endfacet
facet normal 6.443936415494813e-11 -4.4355080719427054e-10 -1.0
  outer loop
    vertex 21.000000000000004 25.500000019258678 4.360821689308736e-08
    vertex 9.7366509999995 23.500000010594682 4.3608215130608306e-08
    vertex 9.7366509999995 25.500001029709424 0.0
  endloop
endfacet
facet normal 6.443936415494813e-11 -4.4355080719427054e-10 -1.0
  outer loop
    vertex 9.7366509999995 23.500000010594682 4.3608215130608306e-08
    vertex 21.000000000000004 25.500000019258678 4.360821689308736e-08
    vertex 10.49999999999999 16.799999999999997 4.36082116056502e-08
  endloop
endfacet
facet normal 6.443936415494813e-11 -4.4355080719427054e-10 -1.0
  outer loop
    vertex 10.49999999999999 16.799999999999997 4.36082116056502e-08
    vertex 21.000000000000004 25.500000019258678 4.360821689308736e-08
    vertex 12.130559984145869 16.585332705621134 4.3608223943003564e-08
  endloop
endfacet
facet normal 6.443936415494813e-11 -4.4355080719427054e-10 -1.0
  outer loop
    vertex 12.130559984145869 16.585332705621134 4.3608223943003564e-08
    vertex 21.000000000000004 25.500000019258678 4.360821689308736e-08
    vertex 13.650000000000004 15.955960043841964 4.36082218280287e-08
  endloop
endfacet
facet normal 6.443936415494813e-11 -4.4355080719427054e-10 -1.0
  outer loop
    vertex 13.650000000000004 15.955960043841964 4.36082218280287e-08
    vertex 21.000000000000004 25.500000019258678 4.360821689308736e-08
    vertex 14.954772721475242 14.954772721475257 4.360822041804546e-08
  endloop
endfacet
facet normal 6.443936415494813e-11 -4.4355080719427054e-10 -1.0
  outer loop
    vertex 14.954772721475242 14.954772721475257 4.360822041804546e-08
    vertex 21.000000000000004 25.500000019258678 4.360821689308736e-08
    vertex 15.95596004384196 13.65000000000001 4.360821900806222e-08
  endloop
endfacet
facet normal 6.443936415494813e-11 -4.4355080719427054e-10 -1.0
  outer loop
    vertex 15.95596004384196 13.65000000000001 4.360821900806222e-08
    vertex 21.000000000000004 25.500000019258678 4.360821689308736e-08
    vertex 16.585332705621138 12.130559984145883 4.36082183030706e-08
  endloop
endfacet
facet normal 6.443936415494813e-11 -4.4355080719427054e-10 -1.0
  outer loop
    vertex 16.585332705621138 12.130559984145883 4.36082183030706e-08
    vertex 21.000000000000004 25.500000019258678 4.360821689308736e-08
    vertex 16.80000000000001 10.5 4.3608225352986804e-08
  endloop
endfacet
facet normal 6.443936415494813e-11 -4.4355080719427054e-10 -1.0
  outer loop
    vertex 16.80000000000001 10.5 4.3608225352986804e-08
    vertex 21.000000000000004 25.500000019258678 4.360821689308736e-08
    vertex 17.924621202458745 3.0753787975412585 4.360820208826332e-08
  endloop
endfacet
facet normal 6.443936415494813e-11 -4.4355080719427054e-10 -1.0
  outer loop
    vertex 17.924621202458745 3.0753787975412585 4.360820208826332e-08
    vertex 21.000000000000004 25.500000019258678 4.360821689308736e-08
    vertex 19.593266739736595 5.250000000000004 4.360820913817953e-08
  endloop
endfacet
facet normal 6.443936415494813e-11 -4.4355080719427054e-10 -1.0
  outer loop
    vertex 19.593266739736595 5.250000000000004 4.360820913817953e-08
    vertex 21.000000000000004 25.500000019258678 4.360821689308736e-08
    vertex 20.64222117603521 7.782400026423531 4.360820490822981e-08
  endloop
endfacet
facet normal 6.443936415494813e-11 -4.4355080719427054e-10 -1.0
  outer loop
    vertex 20.64222117603521 7.782400026423531 4.360820490822981e-08
    vertex 21.000000000000004 25.500000019258678 4.360821689308736e-08
    vertex 21.000000000000004 10.5 4.3608211958146015e-08
  endloop
endfacet
facet normal 6.443936415494813e-11 -4.4355080719427054e-10 -1.0
  outer loop
    vertex 0.3577788239647919 13.217599973576498 4.3608213368129255e-08
    vertex 0.3577788239647919 7.782400026423528 4.360820208826332e-08
    vertex 0.0 10.5 4.3608211958146015e-08
  endloop
endfacet
facet normal 6.443936415494813e-11 -4.4355080719427054e-10 -1.0
  outer loop
    vertex 0.3577788239647919 7.782400026423528 4.360820208826332e-08
    vertex 0.3577788239647919 13.217599973576498 4.3608213368129255e-08
    vertex 1.406733260263409 15.750000000000021 4.360821407312087e-08
  endloop
endfacet
facet normal 6.443936415494813e-11 -4.4355080719427054e-10 -1.0
  outer loop
    vertex 0.3577788239647919 7.782400026423528 4.360820208826332e-08
    vertex 1.406733260263409 15.750000000000021 4.360821407312087e-08
    vertex 1.4067332602634004 5.2499999999999964 4.360821054816277e-08
  endloop
endfacet
facet normal 6.443936415494813e-11 -4.4355080719427054e-10 -1.0
  outer loop
    vertex 1.4067332602634004 5.2499999999999964 4.360821054816277e-08
    vertex 1.406733260263409 15.750000000000021 4.360821407312087e-08
    vertex 3.0753787975412568 3.07537879754125 4.360820349824656e-08
  endloop
endfacet
facet normal 6.443936415494813e-11 -4.4355080719427054e-10 -1.0
  outer loop
    vertex 3.0753787975412568 3.07537879754125 4.360820349824656e-08
    vertex 1.406733260263409 15.750000000000021 4.360821407312087e-08
    vertex 3.0753787975412696 17.924621202458766 4.36082116056502e-08
  endloop
endfacet
facet normal 6.443936415494813e-11 -4.4355080719427054e-10 -1.0
  outer loop
    vertex 3.0753787975412568 3.07537879754125 4.360820349824656e-08
    vertex 3.0753787975412696 17.924621202458766 4.36082116056502e-08
    vertex 5.250000000000014 1.4067332602633948 4.360820913817953e-08
  endloop
endfacet
facet normal 6.443936415494813e-11 -4.4355080719427054e-10 -1.0
  outer loop
    vertex 5.250000000000014 1.4067332602633948 4.360820913817953e-08
    vertex 3.0753787975412696 17.924621202458766 4.36082116056502e-08
    vertex 4.200000000000006 10.500000000000005 4.3608216188095735e-08
  endloop
endfacet
facet normal 6.443936415494813e-11 -4.4355080719427054e-10 -1.0
  outer loop
    vertex 5.250000000000014 1.4067332602633948 4.360820913817953e-08
    vertex 4.200000000000006 10.500000000000005 4.3608216188095735e-08
    vertex 4.414667294378876 8.86944001585412 4.360821548310412e-08
  endloop
endfacet
facet normal 6.443936415494813e-11 -4.4355080719427054e-10 -1.0
  outer loop
    vertex 5.250000000000014 1.4067332602633948 4.360820913817953e-08
    vertex 4.414667294378876 8.86944001585412 4.360821548310412e-08
    vertex 5.0440399561580485 7.350000000000006 4.3608213368129255e-08
  endloop
endfacet
facet normal 6.443936415494813e-11 -4.4355080719427054e-10 -1.0
  outer loop
    vertex 5.250000000000014 1.4067332602633948 4.360820913817953e-08
    vertex 5.0440399561580485 7.350000000000006 4.3608213368129255e-08
    vertex 6.045227278524742 6.045227278524756 4.3608211958146015e-08
  endloop
endfacet
facet normal 6.443936415494813e-11 -4.4355080719427054e-10 -1.0
  outer loop
    vertex 5.250000000000014 1.4067332602633948 4.360820913817953e-08
    vertex 6.045227278524742 6.045227278524756 4.3608211958146015e-08
    vertex 7.782400026423528 0.3577788239647975 4.360820490822981e-08
  endloop
endfacet
facet normal 6.443936415494813e-11 -4.4355080719427054e-10 -1.0
  outer loop
    vertex 7.782400026423528 0.3577788239647975 4.360820490822981e-08
    vertex 6.045227278524742 6.045227278524756 4.3608211958146015e-08
    vertex 7.350000000000002 5.044039956158034 4.3608211958146015e-08
  endloop
endfacet
facet normal 6.443936415494813e-11 -4.4355080719427054e-10 -1.0
  outer loop
    vertex 7.782400026423528 0.3577788239647975 4.360820490822981e-08
    vertex 7.350000000000002 5.044039956158034 4.3608211958146015e-08
    vertex 8.869440015854128 4.414667294378873 4.3608216188095735e-08
  endloop
endfacet
facet normal 6.443936415494813e-11 -4.4355080719427054e-10 -1.0
  outer loop
    vertex 7.782400026423528 0.3577788239647975 4.360820490822981e-08
    vertex 8.869440015854128 4.414667294378873 4.3608216188095735e-08
    vertex 10.499999999999986 5.639932965095795e-15 4.360820349824656e-08
  endloop
endfacet
facet normal 6.443936415494813e-11 -4.4355080719427054e-10 -1.0
  outer loop
    vertex 10.499999999999986 5.639932965095795e-15 4.360820349824656e-08
    vertex 8.869440015854128 4.414667294378873 4.3608216188095735e-08
    vertex 10.499999999999998 4.200000000000004 4.360820349824656e-08
  endloop
endfacet
facet normal 6.443936415494813e-11 -4.4355080719427054e-10 -1.0
  outer loop
    vertex 10.499999999999986 5.639932965095795e-15 4.360820349824656e-08
    vertex 10.499999999999998 4.200000000000004 4.360820349824656e-08
    vertex 13.217599973576478 0.3577788239647975 4.360820631821305e-08
  endloop
endfacet
facet normal 6.443936415494813e-11 -4.4355080719427054e-10 -1.0
  outer loop
    vertex 13.217599973576478 0.3577788239647975 4.360820631821305e-08
    vertex 10.499999999999998 4.200000000000004 4.360820349824656e-08
    vertex 12.130559984145869 4.41466729437887 4.3608217598078975e-08
  endloop
endfacet
facet normal 6.443936415494813e-11 -4.4355080719427054e-10 -1.0
  outer loop
    vertex 13.217599973576478 0.3577788239647975 4.360820631821305e-08
    vertex 12.130559984145869 4.41466729437887 4.3608217598078975e-08
    vertex 13.650000000000015 5.044039956158046 4.3608217598078975e-08
  endloop
endfacet
facet normal 6.443936415494813e-11 -4.4355080719427054e-10 -1.0
  outer loop
    vertex 13.217599973576478 0.3577788239647975 4.360820631821305e-08
    vertex 13.650000000000015 5.044039956158046 4.3608217598078975e-08
    vertex 15.750000000000002 1.4067332602634004 4.3608213368129255e-08
  endloop
endfacet
facet normal 6.443936415494813e-11 -4.4355080719427054e-10 -1.0
  outer loop
    vertex 15.750000000000002 1.4067332602634004 4.3608213368129255e-08
    vertex 13.650000000000015 5.044039956158046 4.3608217598078975e-08
    vertex 14.954772721475242 6.045227278524756 4.3608214778112495e-08
  endloop
endfacet
facet normal 6.443936415494813e-11 -4.4355080719427054e-10 -1.0
  outer loop
    vertex 15.750000000000002 1.4067332602634004 4.3608213368129255e-08
    vertex 14.954772721475242 6.045227278524756 4.3608214778112495e-08
    vertex 15.95596004384196 7.350000000000009 4.360820913817953e-08
  endloop
endfacet
facet normal 6.443936415494813e-11 -4.4355080719427054e-10 -1.0
  outer loop
    vertex 15.750000000000002 1.4067332602634004 4.3608213368129255e-08
    vertex 15.95596004384196 7.350000000000009 4.360820913817953e-08
    vertex 17.924621202458745 3.0753787975412585 4.360820208826332e-08
  endloop
endfacet
facet normal 6.443936415494813e-11 -4.4355080719427054e-10 -1.0
  outer loop
    vertex 17.924621202458745 3.0753787975412585 4.360820208826332e-08
    vertex 15.95596004384196 7.350000000000009 4.360820913817953e-08
    vertex 16.585332705621138 8.86944001585412 4.3608216188095735e-08
  endloop
endfacet
facet normal 6.443936415494813e-11 -4.4355080719427054e-10 -1.0
  outer loop
    vertex 17.924621202458745 3.0753787975412585 4.360820208826332e-08
    vertex 16.585332705621138 8.86944001585412 4.3608216188095735e-08
    vertex 16.80000000000001 10.5 4.3608225352986804e-08
  endloop
endfacet
facet normal 6.443936415494813e-11 -4.4355080719427054e-10 -1.0
  outer loop
    vertex 3.0753787975412696 17.924621202458766 4.36082116056502e-08
    vertex 4.414667294378876 12.130559984145881 4.360821407312087e-08
    vertex 4.200000000000006 10.500000000000005 4.3608216188095735e-08
  endloop
endfacet
facet normal 6.443936415494813e-11 -4.4355080719427054e-10 -1.0
  outer loop
    vertex 4.414667294378876 12.130559984145881 4.360821407312087e-08
    vertex 3.0753787975412696 17.924621202458766 4.36082116056502e-08
    vertex 5.04403995615804 13.65 4.360821689308736e-08
  endloop
endfacet
facet normal 6.443936415494813e-11 -4.4355080719427054e-10 -1.0
  outer loop
    vertex 5.04403995615804 13.65 4.360821689308736e-08
    vertex 3.0753787975412696 17.924621202458766 4.36082116056502e-08
    vertex 9.7366509999995 23.500000010594682 4.3608215130608306e-08
  endloop
endfacet
facet normal 6.443936415494813e-11 -4.4355080719427054e-10 -1.0
  outer loop
    vertex 5.04403995615804 13.65 4.360821689308736e-08
    vertex 9.7366509999995 23.500000010594682 4.3608215130608306e-08
    vertex 6.045227278524742 14.954772721475248 4.36082183030706e-08
  endloop
endfacet
facet normal 6.443936415494813e-11 -4.4355080719427054e-10 -1.0
  outer loop
    vertex 6.045227278524742 14.954772721475248 4.36082183030706e-08
    vertex 9.7366509999995 23.500000010594682 4.3608215130608306e-08
    vertex 7.349999999999984 15.955960043841964 4.3608219360558026e-08
  endloop
endfacet
facet normal 6.443936415494813e-11 -4.4355080719427054e-10 -1.0
  outer loop
    vertex 7.349999999999984 15.955960043841964 4.3608219360558026e-08
    vertex 9.7366509999995 23.500000010594682 4.3608215130608306e-08
    vertex 8.869440015854103 16.58533270562113 4.360821900806222e-08
  endloop
endfacet
facet normal 6.443936415494813e-11 -4.4355080719427054e-10 -1.0
  outer loop
    vertex 8.869440015854103 16.58533270562113 4.360821900806222e-08
    vertex 9.7366509999995 23.500000010594682 4.3608215130608306e-08
    vertex 10.49999999999999 16.799999999999997 4.36082116056502e-08
  endloop
endfacet
facet normal 0.9238795325112859 0.38268343236509217 2.220446049250313e-16
  outer loop
    vertex 5.0440399561580485 7.350000000000006 4.3608213368129255e-08
    vertex 4.414667294378876 8.86944001585412 4.000000043608211
    vertex 5.0440399561580485 7.349999999999989 4.000000043608212
  endloop
endfacet
facet normal 0.9238795325112859 0.38268343236509217 2.220446049250313e-16
  outer loop
    vertex 4.414667294378876 8.86944001585412 4.000000043608211
    vertex 5.0440399561580485 7.350000000000006 4.3608213368129255e-08
    vertex 4.414667294378876 8.86944001585412 4.360821548310412e-08
  endloop
endfacet
facet normal 0.9238795325112861 -0.38268343236509167 -1.6653345369377348e-16
  outer loop
    vertex 20.64222117603521 7.782400026423531 4.360820490822981e-08
    vertex 19.593266739736595 5.250000000000004 4.000000043608215
    vertex 19.593266739736595 5.250000000000004 4.360820913817953e-08
  endloop
endfacet
facet normal 0.9238795325112861 -0.38268343236509167 -1.6653345369377348e-16
  outer loop
    vertex 19.593266739736595 5.250000000000004 4.000000043608215
    vertex 20.64222117603521 7.782400026423531 4.360820490822981e-08
    vertex 20.64222117603521 7.782400026423531 4.000000043608217
  endloop
endfacet
facet normal 0.9914448613738099 -0.13052619222005496 0.0
  outer loop
    vertex 21.000000000000004 10.5 4.3608211958146015e-08
    vertex 20.64222117603521 7.782400026423531 4.000000043608217
    vertex 20.64222117603521 7.782400026423531 4.360820490822981e-08
  endloop
endfacet
facet normal 0.9914448613738099 -0.13052619222005496 0.0
  outer loop
    vertex 20.64222117603521 7.782400026423531 4.000000043608217
    vertex 21.000000000000004 10.5 4.3608211958146015e-08
    vertex 21.000000000000004 10.5 4.000000043608211
  endloop
endfacet
facet normal -0.7933533402912353 -0.6087614290087207 -1.1102230246251565e-16
  outer loop
    vertex 1.4067332602634004 5.249999999999999 4.000000043608212
    vertex 3.0753787975412568 3.07537879754125 4.360820349824656e-08
    vertex 3.0753787975412568 3.0753787975412443 4.000000043608204
  endloop
endfacet
facet normal -0.7933533402912353 -0.6087614290087207 -1.1102230246251565e-16
  outer loop
    vertex 3.0753787975412568 3.07537879754125 4.360820349824656e-08
    vertex 1.4067332602634004 5.249999999999999 4.000000043608212
    vertex 1.4067332602634004 5.2499999999999964 4.360821054816277e-08
  endloop
endfacet
facet normal 0.6087614290087181 0.7933533402912372 6.106226635438361e-16
  outer loop
    vertex 6.045227278524742 6.0452272785247505 4.000000043608219
    vertex 7.350000000000002 5.044039956158034 4.3608211958146015e-08
    vertex 6.045227278524742 6.045227278524756 4.3608211958146015e-08
  endloop
endfacet
facet normal 0.6087614290087181 0.7933533402912372 6.106226635438361e-16
  outer loop
    vertex 7.350000000000002 5.044039956158034 4.3608211958146015e-08
    vertex 6.045227278524742 6.0452272785247505 4.000000043608219
    vertex 7.350000000000002 5.044039956158029 4.000000043608212
  endloop
endfacet
facet normal 0.7933533402912402 0.608761429008714 3.885780586188047e-16
  outer loop
    vertex 6.045227278524742 6.045227278524756 4.3608211958146015e-08
    vertex 5.0440399561580485 7.349999999999989 4.000000043608212
    vertex 6.045227278524742 6.0452272785247505 4.000000043608219
  endloop
endfacet
facet normal 0.7933533402912402 0.608761429008714 3.885780586188047e-16
  outer loop
    vertex 5.0440399561580485 7.349999999999989 4.000000043608212
    vertex 6.045227278524742 6.045227278524756 4.3608211958146015e-08
    vertex 5.0440399561580485 7.350000000000006 4.3608213368129255e-08
  endloop
endfacet
facet normal -0.6087614290087181 -0.7933533402912372 -6.106226635438361e-16
  outer loop
    vertex 5.250000000000014 1.4067332602633948 4.360820913817953e-08
    vertex 3.0753787975412568 3.0753787975412443 4.000000043608204
    vertex 3.0753787975412568 3.07537879754125 4.360820349824656e-08
  endloop
endfacet
facet normal -0.6087614290087181 -0.7933533402912372 -6.106226635438361e-16
  outer loop
    vertex 3.0753787975412568 3.0753787975412443 4.000000043608204
    vertex 5.250000000000014 1.4067332602633948 4.360820913817953e-08
    vertex 5.250000000000014 1.4067332602633893 4.000000043608205
  endloop
endfacet
facet normal 0.3826834323650867 -1.1102230246251565e-16 0.9238795325112881
  outer loop
    vertex 16.985901570056317 20.500000010595965 19.193045578897685
    vertex 16.600012064825407 23.300002075260466 19.35288621668631
    vertex 16.60001204222035 20.500000010595958 19.352886254905094
  endloop
endfacet
facet normal 0.3826834323650867 -1.1102230246251565e-16 0.9238795325112881
  outer loop
    vertex 16.600012064825407 23.300002075260466 19.35288621668631
    vertex 16.985901570056317 20.500000010595965 19.193045578897685
    vertex 16.985901592661374 23.300002075260466 19.193045540678906
  endloop
endfacet
facet normal 0.9999999999999996 -2.10996428616806e-09 3.355619355813991e-08
  outer loop
    vertex 21.000000000000004 25.500000019258678 4.360821689308736e-08
    vertex 21.000000000000004 10.5 4.000000043608211
    vertex 21.000000000000004 10.5 4.3608211958146015e-08
  endloop
endfacet
facet normal 0.9999999999999996 -2.10996428616806e-09 3.355619355813991e-08
  outer loop
    vertex 21.000000000000004 10.5 4.000000043608211
    vertex 21.000000000000004 25.500000019258678 4.360821689308736e-08
    vertex 20.999999072090183 23.300002930027947 1.7000007279566702
  endloop
endfacet
facet normal 0.9999999999999996 -2.10996428616806e-09 3.355619355813991e-08
  outer loop
    vertex 21.000000000000004 10.5 4.000000043608211
    vertex 20.999999072090183 23.300002930027947 1.7000007279566702
    vertex 20.999997616607384 20.50000000000118 4.000001230892971
  endloop
endfacet
facet normal 0.9999999999999996 -2.10996428616806e-09 3.355619355813991e-08
  outer loop
    vertex 20.999997616607384 20.50000000000118 4.000001230892971
    vertex 20.999999072090183 23.300002930027947 1.7000007279566702
    vertex 20.999999892333438 23.300000000000043 2.000000109544599
  endloop
endfacet
facet normal 0.9999999999999996 -2.10996428616806e-09 3.355619355813991e-08
  outer loop
    vertex 20.999999072090183 23.300002930027947 1.7000007279566702
    vertex 21.000000000000004 25.500000019258678 4.360821689308736e-08
    vertex 21.000000000000004 25.499999966398203 1.7000000436082598
  endloop
endfacet
facet normal 0.9999999999999996 -2.10996428616806e-09 3.355619355813991e-08
  outer loop
    vertex 20.999997616607384 20.50000000000118 4.000001230892971
    vertex 20.999999947509103 23.3000015309395 25.000000005389523
    vertex 20.999997541511423 20.499999471474265 25.000001230893034
  endloop
endfacet
facet normal 0.9999999999999996 -2.10996428616806e-09 3.355619355813991e-08
  outer loop
    vertex 20.999999947509103 23.3000015309395 25.000000005389523
    vertex 20.999997616607384 20.50000000000118 4.000001230892971
    vertex 20.999999892333438 23.300000000000043 2.000000109544599
  endloop
endfacet
facet normal 0.6087614290087435 -6.106226635438361e-16 0.7933533402912177
  outer loop
    vertex 16.60001204222035 20.500000010595958 19.352886254905094
    vertex 16.268641214926937 23.300002075260462 19.607156012842946
    vertex 16.26864119232188 20.500000010595965 19.60715605106173
  endloop
endfacet
facet normal 0.6087614290087435 -6.106226635438361e-16 0.7933533402912177
  outer loop
    vertex 16.268641214926937 23.300002075260462 19.607156012842946
    vertex 16.60001204222035 20.500000010595958 19.352886254905094
    vertex 16.600012064825407 23.300002075260466 19.35288621668631
  endloop
endfacet
facet normal -0.9238795325112854 0.38268343236509356 2.2204460492503136e-16
  outer loop
    vertex 16.585332705621138 8.869440015854124 4.000000043608217
    vertex 15.95596004384196 7.350000000000009 4.360820913817953e-08
    vertex 15.95596004384196 7.349999999999989 4.000000043608217
  endloop
endfacet
facet normal -0.9238795325112854 0.38268343236509356 2.2204460492503136e-16
  outer loop
    vertex 15.95596004384196 7.350000000000009 4.360820913817953e-08
    vertex 16.585332705621138 8.869440015854124 4.000000043608217
    vertex 16.585332705621138 8.86944001585412 4.3608216188095735e-08
  endloop
endfacet
facet normal -0.13052619222005213 0.9914448613738105 7.771561172376096e-16
  outer loop
    vertex 10.499999999999998 4.1999999999999975 4.000000043608211
    vertex 12.130559984145869 4.41466729437887 4.3608217598078975e-08
    vertex 10.499999999999998 4.200000000000004 4.360820349824656e-08
  endloop
endfacet
facet normal -0.13052619222005213 0.9914448613738105 7.771561172376096e-16
  outer loop
    vertex 12.130559984145869 4.41466729437887 4.3608217598078975e-08
    vertex 10.499999999999998 4.1999999999999975 4.000000043608211
    vertex 12.130559984145869 4.41466729437887 4.000000043608219
  endloop
endfacet
facet normal 0.13052619222005174 -0.9914448613738104 -7.216449660063518e-16
  outer loop
    vertex 10.49999999999999 16.799999999999997 4.000000043608218
    vertex 8.869440015854103 16.58533270562113 4.360821900806222e-08
    vertex 10.49999999999999 16.799999999999997 4.36082116056502e-08
  endloop
endfacet
facet normal 0.13052619222005174 -0.9914448613738104 -7.216449660063518e-16
  outer loop
    vertex 8.869440015854103 16.58533270562113 4.360821900806222e-08
    vertex 10.49999999999999 16.799999999999997 4.000000043608218
    vertex 8.869440015854103 16.585332705621127 4.000000043608222
  endloop
endfacet
facet normal 0.6087614290087229 -0.7933533402912334 -5.551115123125782e-16
  outer loop
    vertex 7.349999999999984 15.955960043841964 4.3608219360558026e-08
    vertex 6.045227278524742 14.954772721475246 4.000000043608218
    vertex 6.045227278524742 14.954772721475248 4.36082183030706e-08
  endloop
endfacet
facet normal 0.6087614290087229 -0.7933533402912334 -5.551115123125782e-16
  outer loop
    vertex 6.045227278524742 14.954772721475246 4.000000043608218
    vertex 7.349999999999984 15.955960043841964 4.3608219360558026e-08
    vertex 7.349999999999984 15.955960043841959 4.000000043608226
  endloop
endfacet
facet normal 0.3826834323650899 -0.9238795325112867 -5.551115123125783e-17
  outer loop
    vertex 8.869440015854103 16.585332705621127 4.000000043608222
    vertex 7.349999999999984 15.955960043841964 4.3608219360558026e-08
    vertex 8.869440015854103 16.58533270562113 4.360821900806222e-08
  endloop
endfacet
facet normal 0.3826834323650899 -0.9238795325112867 -5.551115123125783e-17
  outer loop
    vertex 7.349999999999984 15.955960043841964 4.3608219360558026e-08
    vertex 8.869440015854103 16.585332705621127 4.000000043608222
    vertex 7.349999999999984 15.955960043841959 4.000000043608226
  endloop
endfacet
facet normal -0.99144486137381 -0.13052619222005477 -1.3183898417423734e-16
  outer loop
    vertex 0.0 10.499999999999995 4.000000043608215
    vertex 0.3577788239647919 7.782400026423528 4.360820208826332e-08
    vertex 0.3577788239647919 7.782400026423526 4.000000043608212
  endloop
endfacet
facet normal -0.99144486137381 -0.13052619222005477 -1.3183898417423734e-16
  outer loop
    vertex 0.3577788239647919 7.782400026423528 4.360820208826332e-08
    vertex 0.0 10.499999999999995 4.000000043608215
    vertex 0.0 10.5 4.3608211958146015e-08
  endloop
endfacet
facet normal 0.793353340291239 -0.6087614290087155 -3.885780586188048e-16
  outer loop
    vertex 6.045227278524742 14.954772721475248 4.36082183030706e-08
    vertex 5.04403995615804 13.65 4.000000043608217
    vertex 5.04403995615804 13.65 4.360821689308736e-08
  endloop
endfacet
facet normal 0.793353340291239 -0.6087614290087155 -3.885780586188048e-16
  outer loop
    vertex 5.04403995615804 13.65 4.000000043608217
    vertex 6.045227278524742 14.954772721475248 4.36082183030706e-08
    vertex 6.045227278524742 14.954772721475246 4.000000043608218
  endloop
endfacet
facet normal -0.9914448613738108 3.469446951953614e-17 -0.13052619222004952
  outer loop
    vertex 18.945493386887915 23.300002075260466 21.152637334905453
    vertex 19.000012042220344 20.500000010595965 20.738526900960203
    vertex 18.945493364282854 20.50000001059596 21.15263737312424
  endloop
endfacet
facet normal -0.9914448613738108 3.469446951953614e-17 -0.13052619222004952
  outer loop
    vertex 19.000012042220344 20.500000010595965 20.738526900960203
    vertex 18.945493386887915 23.300002075260466 21.152637334905453
    vertex 19.000012064825405 23.300002075260466 20.738526862741423
  endloop
endfacet
facet normal 0.13052619222005393 0.9914448613738102 7.771561172376096e-16
  outer loop
    vertex 8.869440015854128 4.414667294378873 4.3608216188095735e-08
    vertex 10.499999999999998 4.1999999999999975 4.000000043608211
    vertex 10.499999999999998 4.200000000000004 4.360820349824656e-08
  endloop
endfacet
facet normal 0.13052619222005393 0.9914448613738102 7.771561172376096e-16
  outer loop
    vertex 10.499999999999998 4.1999999999999975 4.000000043608211
    vertex 8.869440015854128 4.414667294378873 4.3608216188095735e-08
    vertex 8.869440015854128 4.41466729437887 4.000000043608217
  endloop
endfacet
facet normal 0.38268343236508995 -0.9238795325112867 -5.551115123125783e-17
  outer loop
    vertex 15.750000000000002 1.4067332602634004 4.3608213368129255e-08
    vertex 13.217599973576478 0.3577788239647862 4.000000043608205
    vertex 13.217599973576478 0.3577788239647975 4.360820631821305e-08
  endloop
endfacet
facet normal 0.38268343236508995 -0.9238795325112867 -5.551115123125783e-17
  outer loop
    vertex 13.217599973576478 0.3577788239647862 4.000000043608205
    vertex 15.750000000000002 1.4067332602634004 4.3608213368129255e-08
    vertex 15.750000000000002 1.4067332602633948 4.000000043608207
  endloop
endfacet
facet normal 0.6087614290087218 -0.7933533402912344 -5.551115123125783e-16
  outer loop
    vertex 17.924621202458745 3.0753787975412554 4.0000000436082
    vertex 15.750000000000002 1.4067332602634004 4.3608213368129255e-08
    vertex 17.924621202458745 3.0753787975412585 4.360820208826332e-08
  endloop
endfacet
facet normal 0.6087614290087218 -0.7933533402912344 -5.551115123125783e-16
  outer loop
    vertex 15.750000000000002 1.4067332602634004 4.3608213368129255e-08
    vertex 17.924621202458745 3.0753787975412554 4.0000000436082
    vertex 15.750000000000002 1.4067332602633948 4.000000043608207
  endloop
endfacet
facet normal 0.7933533402912364 -0.6087614290087191 -2.220446049250313e-16
  outer loop
    vertex 17.924621202458745 3.0753787975412585 4.360820208826332e-08
    vertex 19.593266739736595 5.250000000000004 4.000000043608215
    vertex 17.924621202458745 3.0753787975412554 4.0000000436082
  endloop
endfacet
facet normal 0.7933533402912364 -0.6087614290087191 -2.220446049250313e-16
  outer loop
    vertex 19.593266739736595 5.250000000000004 4.000000043608215
    vertex 17.924621202458745 3.0753787975412585 4.360820208826332e-08
    vertex 19.593266739736595 5.250000000000004 4.360820913817953e-08
  endloop
endfacet
facet normal -0.1305261922200532 -0.9914448613738103 -7.216449660063518e-16
  outer loop
    vertex 10.499999999999986 0.0 4.000000043608207
    vertex 7.782400026423528 0.3577788239647975 4.360820490822981e-08
    vertex 10.499999999999986 5.639932965095795e-15 4.360820349824656e-08
  endloop
endfacet
facet normal -0.1305261922200532 -0.9914448613738103 -7.216449660063518e-16
  outer loop
    vertex 7.782400026423528 0.3577788239647975 4.360820490822981e-08
    vertex 10.499999999999986 0.0 4.000000043608207
    vertex 7.782400026423528 0.3577788239647862 4.000000043608202
  endloop
endfacet
facet normal -0.13052619222004977 -0.9914448613738106 -6.661338147750937e-16
  outer loop
    vertex 12.130559984145869 16.585332705621134 4.3608223943003564e-08
    vertex 10.49999999999999 16.799999999999997 4.000000043608218
    vertex 10.49999999999999 16.799999999999997 4.36082116056502e-08
  endloop
endfacet
facet normal -0.13052619222004977 -0.9914448613738106 -6.661338147750937e-16
  outer loop
    vertex 10.49999999999999 16.799999999999997 4.000000043608218
    vertex 12.130559984145869 16.585332705621134 4.3608223943003564e-08
    vertex 12.130559984145869 16.585332705621134 4.000000043608226
  endloop
endfacet
facet normal 5.383328353146139e-07 0.9999999999998008 -3.29681913435742e-07
  outer loop
    vertex 12.200012066418541 23.300002255992332 4.480337926738149
    vertex 16.985901592661374 23.300002075260466 19.193045540678906
    vertex 17.400012064825408 23.30000207526047 19.138526862741415
  endloop
endfacet
facet normal 5.383328353146139e-07 0.9999999999998008 -3.29681913435742e-07
  outer loop
    vertex 16.985901592661374 23.300002075260466 19.193045540678906
    vertex 12.200012066418541 23.300002255992332 4.480337926738149
    vertex 16.600012064825407 23.300002075260466 19.35288621668631
  endloop
endfacet
facet normal 5.383328353146139e-07 0.9999999999998008 -3.29681913435742e-07
  outer loop
    vertex 16.600012064825407 23.300002075260466 19.35288621668631
    vertex 12.200012066418541 23.300002255992332 4.480337926738149
    vertex 16.268641214926937 23.300002075260462 19.607156012842946
  endloop
endfacet
facet normal 5.383328353146139e-07 0.9999999999998008 -3.29681913435742e-07
  outer loop
    vertex 16.268641214926937 23.300002075260462 19.607156012842946
    vertex 12.200012066418541 23.300002255992332 4.480337926738149
    vertex 16.01437141877031 23.300002075260466 19.938526862741423
  endloop
endfacet
facet normal 5.383328353146139e-07 0.9999999999998008 -3.29681913435742e-07
  outer loop
    vertex 16.01437141877031 23.300002075260466 19.938526862741423
    vertex 12.200012066418541 23.300002255992332 4.480337926738149
    vertex 12.200010166800379 23.300016832212638 25.000000847269465
  endloop
endfacet
facet normal 5.383328353146139e-07 0.9999999999998008 -3.29681913435742e-07
  outer loop
    vertex 16.01437141877031 23.300002075260466 19.938526862741423
    vertex 12.200010166800379 23.300016832212638 25.000000847269465
    vertex 15.854530742762904 23.300002075260466 20.324416390577387
  endloop
endfacet
facet normal 5.383328353146139e-07 0.9999999999998008 -3.29681913435742e-07
  outer loop
    vertex 15.854530742762904 23.300002075260466 20.324416390577387
    vertex 12.200010166800379 23.300016832212638 25.000000847269465
    vertex 15.80001206482541 23.300002075260466 20.738526862741423
  endloop
endfacet
facet normal 5.383328353146139e-07 0.9999999999998008 -3.29681913435742e-07
  outer loop
    vertex 15.80001206482541 23.300002075260466 20.738526862741423
    vertex 12.200010166800379 23.300016832212638 25.000000847269465
    vertex 15.854530742762904 23.300002075260466 21.152637334905453
  endloop
endfacet
facet normal 5.383328353146139e-07 0.9999999999998008 -3.29681913435742e-07
  outer loop
    vertex 15.854530742762904 23.300002075260466 21.152637334905453
    vertex 12.200010166800379 23.300016832212638 25.000000847269465
    vertex 16.01437141877031 23.30000207526047 21.538526862741428
  endloop
endfacet
facet normal 5.383328353146139e-07 0.9999999999998008 -3.29681913435742e-07
  outer loop
    vertex 16.01437141877031 23.30000207526047 21.538526862741428
    vertex 12.200010166800379 23.300016832212638 25.000000847269465
    vertex 16.268641214926937 23.30000207526047 21.869897712639894
  endloop
endfacet
facet normal 5.383328353146139e-07 0.9999999999998008 -3.29681913435742e-07
  outer loop
    vertex 16.268641214926937 23.30000207526047 21.869897712639894
    vertex 12.200010166800379 23.300016832212638 25.000000847269465
    vertex 16.600012064825407 23.300002075260462 22.124167508796518
  endloop
endfacet
facet normal 5.383328353146139e-07 0.9999999999998008 -3.29681913435742e-07
  outer loop
    vertex 16.600012064825407 23.300002075260462 22.124167508796518
    vertex 12.200010166800379 23.300016832212638 25.000000847269465
    vertex 16.985901592661374 23.300002075260466 22.28400818480393
  endloop
endfacet
facet normal 5.383328353146139e-07 0.9999999999998008 -3.29681913435742e-07
  outer loop
    vertex 16.985901592661374 23.300002075260466 22.28400818480393
    vertex 12.200010166800379 23.300016832212638 25.000000847269465
    vertex 17.400012064825408 23.300002075260466 22.33852686274142
  endloop
endfacet
facet normal 5.383328353146139e-07 0.9999999999998008 -3.29681913435742e-07
  outer loop
    vertex 17.400012064825408 23.300002075260466 22.33852686274142
    vertex 12.200010166800379 23.300016832212638 25.000000847269465
    vertex 20.999999947509103 23.3000015309395 25.000000005389523
  endloop
endfacet
facet normal 5.383328353146139e-07 0.9999999999998008 -3.29681913435742e-07
  outer loop
    vertex 14.980348194169272 23.300002927033333 1.7000015086033946
    vertex 20.999999892333438 23.300000000000043 2.000000109544599
    vertex 20.999999072090183 23.300002930027947 1.7000007279566702
  endloop
endfacet
facet normal 5.383328353146139e-07 0.9999999999998008 -3.29681913435742e-07
  outer loop
    vertex 20.999999892333438 23.300000000000043 2.000000109544599
    vertex 14.980348194169272 23.300002927033333 1.7000015086033946
    vertex 14.274648864997696 23.30000204938966 1.7929079347041574
  endloop
endfacet
facet normal 5.383328353146139e-07 0.9999999999998008 -3.29681913435742e-07
  outer loop
    vertex 20.999999892333438 23.300000000000043 2.000000109544599
    vertex 14.274648864997696 23.30000204938966 1.7929079347041574
    vertex 13.774681218197188 23.300002654839528 2.00000131475688
  endloop
endfacet
facet normal 5.383328353146139e-07 0.9999999999998008 -3.29681913435742e-07
  outer loop
    vertex 20.999999892333438 23.300000000000043 2.000000109544599
    vertex 13.774681218197188 23.300002654839528 2.00000131475688
    vertex 20.999999947509103 23.3000015309395 25.000000005389523
  endloop
endfacet
facet normal 5.383328353146139e-07 0.9999999999998008 -3.29681913435742e-07
  outer loop
    vertex 20.999999947509103 23.3000015309395 25.000000005389523
    vertex 13.774681218197188 23.300002654839528 2.00000131475688
    vertex 13.598717720738389 23.300002107539846 2.0728877818867275
  endloop
endfacet
facet normal 5.383328353146139e-07 0.9999999999998008 -3.29681913435742e-07
  outer loop
    vertex 20.999999947509103 23.3000015309395 25.000000005389523
    vertex 13.598717720738389 23.300002107539846 2.0728877818867275
    vertex 13.01828265653419 23.300002108618575 2.518271271419905
  endloop
endfacet
facet normal 5.383328353146139e-07 0.9999999999998008 -3.29681913435742e-07
  outer loop
    vertex 20.999999947509103 23.3000015309395 25.000000005389523
    vertex 13.01828265653419 23.300002108618575 2.518271271419905
    vertex 12.572898142996277 23.30000312013364 3.098707094431045
  endloop
endfacet
facet normal 5.383328353146139e-07 0.9999999999998008 -3.29681913435742e-07
  outer loop
    vertex 20.999999947509103 23.3000015309395 25.000000005389523
    vertex 12.572898142996277 23.30000312013364 3.098707094431045
    vertex 12.292918245187883 23.300003215527735 3.7746383609132406
  endloop
endfacet
facet normal 5.383328353146139e-07 0.9999999999998008 -3.29681913435742e-07
  outer loop
    vertex 20.999999947509103 23.3000015309395 25.000000005389523
    vertex 12.292918245187883 23.300003215527735 3.7746383609132406
    vertex 12.200012066418541 23.300002255992332 4.480337926738149
  endloop
endfacet
facet normal 5.383328353146139e-07 0.9999999999998008 -3.29681913435742e-07
  outer loop
    vertex 20.999999947509103 23.3000015309395 25.000000005389523
    vertex 12.200012066418541 23.300002255992332 4.480337926738149
    vertex 18.78565271088051 23.300002075260466 19.938526862741423
  endloop
endfacet
facet normal 5.383328353146139e-07 0.9999999999998008 -3.29681913435742e-07
  outer loop
    vertex 18.78565271088051 23.300002075260466 19.938526862741423
    vertex 12.200012066418541 23.300002255992332 4.480337926738149
    vertex 18.53138291472388 23.300002075260462 19.607156012842946
  endloop
endfacet
facet normal 5.383328353146139e-07 0.9999999999998008 -3.29681913435742e-07
  outer loop
    vertex 18.53138291472388 23.300002075260462 19.607156012842946
    vertex 12.200012066418541 23.300002255992332 4.480337926738149
    vertex 18.200012064825405 23.300002075260466 19.35288621668631
  endloop
endfacet
facet normal 5.383328353146139e-07 0.9999999999998008 -3.29681913435742e-07
  outer loop
    vertex 18.200012064825405 23.300002075260466 19.35288621668631
    vertex 12.200012066418541 23.300002255992332 4.480337926738149
    vertex 17.814122536989437 23.300002075260466 19.193045540678906
  endloop
endfacet
facet normal 5.383328353146139e-07 0.9999999999998008 -3.29681913435742e-07
  outer loop
    vertex 17.814122536989437 23.300002075260466 19.193045540678906
    vertex 12.200012066418541 23.300002255992332 4.480337926738149
    vertex 17.400012064825408 23.30000207526047 19.138526862741415
  endloop
endfacet
facet normal 5.383328353146139e-07 0.9999999999998008 -3.29681913435742e-07
  outer loop
    vertex 20.999999947509103 23.3000015309395 25.000000005389523
    vertex 18.78565271088051 23.300002075260466 19.938526862741423
    vertex 18.945493386887915 23.300002075260466 20.324416390577387
  endloop
endfacet
facet normal 5.383328353146139e-07 0.9999999999998008 -3.29681913435742e-07
  outer loop
    vertex 20.999999947509103 23.3000015309395 25.000000005389523
    vertex 18.945493386887915 23.300002075260466 20.324416390577387
    vertex 19.000012064825405 23.300002075260466 20.738526862741423
  endloop
endfacet
facet normal 5.383328353146139e-07 0.9999999999998008 -3.29681913435742e-07
  outer loop
    vertex 20.999999947509103 23.3000015309395 25.000000005389523
    vertex 19.000012064825405 23.300002075260466 20.738526862741423
    vertex 18.945493386887915 23.300002075260466 21.152637334905453
  endloop
endfacet
facet normal 5.383328353146139e-07 0.9999999999998008 -3.29681913435742e-07
  outer loop
    vertex 20.999999947509103 23.3000015309395 25.000000005389523
    vertex 18.945493386887915 23.300002075260466 21.152637334905453
    vertex 18.78565271088051 23.30000207526047 21.538526862741428
  endloop
endfacet
facet normal 5.383328353146139e-07 0.9999999999998008 -3.29681913435742e-07
  outer loop
    vertex 20.999999947509103 23.3000015309395 25.000000005389523
    vertex 18.78565271088051 23.30000207526047 21.538526862741428
    vertex 18.53138291472388 23.30000207526047 21.869897712639894
  endloop
endfacet
facet normal 5.383328353146139e-07 0.9999999999998008 -3.29681913435742e-07
  outer loop
    vertex 20.999999947509103 23.3000015309395 25.000000005389523
    vertex 18.53138291472388 23.30000207526047 21.869897712639894
    vertex 18.200012064825405 23.300002075260462 22.124167508796518
  endloop
endfacet
facet normal 5.383328353146139e-07 0.9999999999998008 -3.29681913435742e-07
  outer loop
    vertex 20.999999947509103 23.3000015309395 25.000000005389523
    vertex 18.200012064825405 23.300002075260462 22.124167508796518
    vertex 17.814122536989437 23.300002075260466 22.28400818480394
  endloop
endfacet
facet normal 5.383328353146139e-07 0.9999999999998008 -3.29681913435742e-07
  outer loop
    vertex 20.999999947509103 23.3000015309395 25.000000005389523
    vertex 17.814122536989437 23.300002075260466 22.28400818480394
    vertex 17.400012064825408 23.300002075260466 22.33852686274142
  endloop
endfacet
facet normal -0.7933533402912334 0.608761429008723 2.220446049250313e-16
  outer loop
    vertex 15.95596004384196 7.349999999999989 4.000000043608217
    vertex 14.954772721475242 6.045227278524756 4.3608214778112495e-08
    vertex 14.954772721475242 6.0452272785247505 4.000000043608222
  endloop
endfacet
facet normal -0.7933533402912334 0.608761429008723 2.220446049250313e-16
  outer loop
    vertex 14.954772721475242 6.045227278524756 4.3608214778112495e-08
    vertex 15.95596004384196 7.349999999999989 4.000000043608217
    vertex 15.95596004384196 7.350000000000009 4.360820913817953e-08
  endloop
endfacet
facet normal 0.1305261922200526 -0.9914448613738103 -6.10622663543836e-16
  outer loop
    vertex 13.217599973576478 0.3577788239647975 4.360820631821305e-08
    vertex 10.499999999999986 0.0 4.000000043608207
    vertex 10.499999999999986 5.639932965095795e-15 4.360820349824656e-08
  endloop
endfacet
facet normal 0.1305261922200526 -0.9914448613738103 -6.10622663543836e-16
  outer loop
    vertex 10.499999999999986 0.0 4.000000043608207
    vertex 13.217599973576478 0.3577788239647975 4.360820631821305e-08
    vertex 13.217599973576478 0.3577788239647862 4.000000043608205
  endloop
endfacet
facet normal -0.9914448613738103 0.13052619222005354 0.0
  outer loop
    vertex 0.3577788239647919 13.217599973576498 4.000000043608211
    vertex 0.0 10.5 4.3608211958146015e-08
    vertex 0.0 10.499999999999995 4.000000043608215
  endloop
endfacet
facet normal -0.9914448613738103 0.13052619222005354 0.0
  outer loop
    vertex 0.0 10.5 4.3608211958146015e-08
    vertex 0.3577788239647919 13.217599973576498 4.000000043608211
    vertex 0.3577788239647919 13.217599973576498 4.3608213368129255e-08
  endloop
endfacet
facet normal -0.7933533402912343 -0.6087614290087217 -3.3306690738754686e-16
  outer loop
    vertex 14.954772721475242 14.954772721475253 4.000000043608219
    vertex 15.95596004384196 13.65000000000001 4.360821900806222e-08
    vertex 15.95596004384196 13.65 4.000000043608219
  endloop
endfacet
facet normal -0.7933533402912343 -0.6087614290087217 -3.3306690738754686e-16
  outer loop
    vertex 15.95596004384196 13.65000000000001 4.360821900806222e-08
    vertex 14.954772721475242 14.954772721475253 4.000000043608219
    vertex 14.954772721475242 14.954772721475257 4.360822041804546e-08
  endloop
endfacet
facet normal -0.9238795325112846 -0.382683432365095 -2.220446049250313e-16
  outer loop
    vertex 16.585332705621138 12.130559984145886 4.000000043608215
    vertex 15.95596004384196 13.65000000000001 4.360821900806222e-08
    vertex 16.585332705621138 12.130559984145883 4.36082183030706e-08
  endloop
endfacet
facet normal -0.9238795325112846 -0.382683432365095 -2.220446049250313e-16
  outer loop
    vertex 15.95596004384196 13.65000000000001 4.360821900806222e-08
    vertex 16.585332705621138 12.130559984145886 4.000000043608215
    vertex 15.95596004384196 13.65 4.000000043608219
  endloop
endfacet
facet normal -0.382683432365088 -0.9238795325112874 -4.440892098500625e-16
  outer loop
    vertex 13.650000000000004 15.955960043841964 4.000000043608228
    vertex 12.130559984145869 16.585332705621134 4.3608223943003564e-08
    vertex 13.650000000000004 15.955960043841964 4.36082218280287e-08
  endloop
endfacet
facet normal -0.382683432365088 -0.9238795325112874 -4.440892098500625e-16
  outer loop
    vertex 12.130559984145869 16.585332705621134 4.3608223943003564e-08
    vertex 13.650000000000004 15.955960043841964 4.000000043608228
    vertex 12.130559984145869 16.585332705621134 4.000000043608226
  endloop
endfacet
facet normal -0.6087614290087254 0.7933533402912316 4.996003610813204e-16
  outer loop
    vertex 13.650000000000015 5.044039956158046 4.3608217598078975e-08
    vertex 14.954772721475242 6.0452272785247505 4.000000043608222
    vertex 14.954772721475242 6.045227278524756 4.3608214778112495e-08
  endloop
endfacet
facet normal -0.6087614290087254 0.7933533402912316 4.996003610813204e-16
  outer loop
    vertex 14.954772721475242 6.0452272785247505 4.000000043608222
    vertex 13.650000000000015 5.044039956158046 4.3608217598078975e-08
    vertex 13.650000000000015 5.044039956158034 4.000000043608219
  endloop
endfacet
facet normal -0.9999999999994786 -1.0205704426476538e-06 3.4934119546007624e-08
  outer loop
    vertex 9.736650924903534 25.50000049058783 25.000000000000085
    vertex 9.736656306634556 20.500001021050352 4.000001184751427
    vertex 9.73665623153859 20.500000481928762 25.000001184751504
  endloop
endfacet
facet normal -0.9999999999994786 -1.0205704426476538e-06 3.4934119546007624e-08
  outer loop
    vertex 9.736656306634556 20.500001021050352 4.000001184751427
    vertex 9.736650924903534 25.50000049058783 25.000000000000085
    vertex 9.7366509999995 23.50000001059468 4.000000043608215
  endloop
endfacet
facet normal -0.9999999999994786 -1.0205704426476538e-06 3.4934119546007624e-08
  outer loop
    vertex 9.7366509999995 23.50000001059468 4.000000043608215
    vertex 9.736650924903534 25.50000049058783 25.000000000000085
    vertex 9.7366509999995 23.500000010594682 4.3608215130608306e-08
  endloop
endfacet
facet normal -0.9999999999994786 -1.0205704426476538e-06 3.4934119546007624e-08
  outer loop
    vertex 9.7366509999995 23.500000010594682 4.3608215130608306e-08
    vertex 9.736650924903534 25.50000049058783 25.000000000000085
    vertex 9.7366509999995 25.500001029709424 0.0
  endloop
endfacet
facet normal -0.9999999999994786 -1.0205704426476538e-06 3.4934119546007624e-08
  outer loop
    vertex 9.7366509999995 25.500001029709424 0.0
    vertex 9.736650924903534 25.50000049058783 25.000000000000085
    vertex 9.7366509999995 25.500001029709424 2.0
  endloop
endfacet
facet normal 0.13052619222006273 6.661338147750937e-16 -0.9914448613738089
  outer loop
    vertex 16.985901592661374 23.300002075260466 22.28400818480393
    vertex 17.40001204222035 20.500000010595954 22.3385269009602
    vertex 16.985901570056317 20.500000010595954 22.2840082230227
  endloop
endfacet
facet normal 0.13052619222006273 6.661338147750937e-16 -0.9914448613738089
  outer loop
    vertex 17.40001204222035 20.500000010595954 22.3385269009602
    vertex 16.985901592661374 23.300002075260466 22.28400818480393
    vertex 17.400012064825408 23.300002075260466 22.33852686274142
  endloop
endfacet
facet normal 0.7933533402912308 -2.220446049250313e-16 0.6087614290087264
  outer loop
    vertex 16.26864119232188 20.500000010595965 19.60715605106173
    vertex 16.01437141877031 23.300002075260466 19.938526862741423
    vertex 16.014371396165252 20.50000001059596 19.938526900960206
  endloop
endfacet
facet normal 0.7933533402912308 -2.220446049250313e-16 0.6087614290087264
  outer loop
    vertex 16.01437141877031 23.300002075260466 19.938526862741423
    vertex 16.26864119232188 20.500000010595965 19.60715605106173
    vertex 16.268641214926937 23.300002075260462 19.607156012842946
  endloop
endfacet
facet normal 0.9238795325112881 -1.1102230246251565e-16 0.38268343236508695
  outer loop
    vertex 16.01437141877031 23.300002075260466 19.938526862741423
    vertex 15.854530720157848 20.500000010595965 20.32441642879617
    vertex 16.014371396165252 20.50000001059596 19.938526900960206
  endloop
endfacet
facet normal 0.9238795325112881 -1.1102230246251565e-16 0.38268343236508695
  outer loop
    vertex 15.854530720157848 20.500000010595965 20.32441642879617
    vertex 16.01437141877031 23.300002075260466 19.938526862741423
    vertex 15.854530742762904 23.300002075260466 20.324416390577387
  endloop
endfacet
facet normal 0.991444861373809 -2.7755575615628914e-17 0.13052619222006284
  outer loop
    vertex 15.854530720157848 20.500000010595965 20.32441642879617
    vertex 15.80001206482541 23.300002075260466 20.738526862741423
    vertex 15.800012042220352 20.500000010595965 20.738526900960203
  endloop
endfacet
facet normal 0.991444861373809 -2.7755575615628914e-17 0.13052619222006284
  outer loop
    vertex 15.80001206482541 23.300002075260466 20.738526862741423
    vertex 15.854530720157848 20.500000010595965 20.32441642879617
    vertex 15.854530742762904 23.300002075260466 20.324416390577387
  endloop
endfacet
facet normal -0.3826834323650867 1.1102230246251565e-16 -0.9238795325112881
  outer loop
    vertex 17.814122536989437 23.300002075260466 22.28400818480394
    vertex 18.200012042220347 20.500000010595958 22.12416754701531
    vertex 17.81412251438438 20.500000010595954 22.284008223022717
  endloop
endfacet
facet normal -0.3826834323650867 1.1102230246251565e-16 -0.9238795325112881
  outer loop
    vertex 18.200012042220347 20.500000010595958 22.12416754701531
    vertex 17.814122536989437 23.300002075260466 22.28400818480394
    vertex 18.200012064825405 23.300002075260462 22.124167508796518
  endloop
endfacet
facet normal 1.2968305624283125e-07 3.0920641924669923e-07 0.9999999999999438
  outer loop
    vertex 20.999999072090183 23.300002930027947 1.7000007279566702
    vertex 14.9803491220791 25.499999963403585 1.7000008242549844
    vertex 14.980348194169272 23.300002927033333 1.7000015086033946
  endloop
endfacet
facet normal 1.2968305624283125e-07 3.0920641924669923e-07 0.9999999999999438
  outer loop
    vertex 14.9803491220791 25.499999963403585 1.7000008242549844
    vertex 20.999999072090183 23.300002930027947 1.7000007279566702
    vertex 21.000000000000004 25.499999966398203 1.7000000436082598
  endloop
endfacet
facet normal -0.9238795325112872 -0.382683432365089 -3.0531133177191805e-16
  outer loop
    vertex 1.4067332602634004 5.249999999999999 4.000000043608212
    vertex 0.3577788239647919 7.782400026423528 4.360820208826332e-08
    vertex 1.4067332602634004 5.2499999999999964 4.360821054816277e-08
  endloop
endfacet
facet normal -0.9238795325112872 -0.382683432365089 -3.0531133177191805e-16
  outer loop
    vertex 0.3577788239647919 7.782400026423528 4.360820208826332e-08
    vertex 1.4067332602634004 5.249999999999999 4.000000043608212
    vertex 0.3577788239647919 7.782400026423526 4.000000043608212
  endloop
endfacet
facet normal -0.13052619222003617 7.216449660063518e-16 -0.9914448613738125
  outer loop
    vertex 17.400012064825408 23.300002075260466 22.33852686274142
    vertex 17.81412251438438 20.500000010595954 22.284008223022717
    vertex 17.40001204222035 20.500000010595954 22.3385269009602
  endloop
endfacet
facet normal -0.13052619222003617 7.216449660063518e-16 -0.9914448613738125
  outer loop
    vertex 17.81412251438438 20.500000010595954 22.284008223022717
    vertex 17.400012064825408 23.300002075260466 22.33852686274142
    vertex 17.814122536989437 23.300002075260466 22.28400818480394
  endloop
endfacet
facet normal -0.9238795325112859 0.38268343236509217 1.6653345369377348e-16
  outer loop
    vertex 1.406733260263409 15.750000000000021 4.000000043608217
    vertex 0.3577788239647919 13.217599973576498 4.3608213368129255e-08
    vertex 0.3577788239647919 13.217599973576498 4.000000043608211
  endloop
endfacet
facet normal -0.9238795325112859 0.38268343236509217 1.6653345369377348e-16
  outer loop
    vertex 0.3577788239647919 13.217599973576498 4.3608213368129255e-08
    vertex 1.406733260263409 15.750000000000021 4.000000043608217
    vertex 1.406733260263409 15.750000000000021 4.360821407312087e-08
  endloop
endfacet
facet normal -1.4145013944350577e-08 -2.6336769598511716e-08 0.9999999999999996
  outer loop
    vertex 0.3577788239647919 7.782400026423526 4.000000043608212
    vertex 0.3577788239647919 13.217599973576498 4.000000043608211
    vertex 0.0 10.499999999999995 4.000000043608215
  endloop
endfacet
facet normal -1.4145013944350577e-08 -2.6336769598511716e-08 0.9999999999999996
  outer loop
    vertex 0.3577788239647919 13.217599973576498 4.000000043608211
    vertex 0.3577788239647919 7.782400026423526 4.000000043608212
    vertex 1.4067332602634004 5.249999999999999 4.000000043608212
  endloop
endfacet
facet normal -1.4145013944350577e-08 -2.6336769598511716e-08 0.9999999999999996
  outer loop
    vertex 0.3577788239647919 13.217599973576498 4.000000043608211
    vertex 1.4067332602634004 5.249999999999999 4.000000043608212
    vertex 1.406733260263409 15.750000000000021 4.000000043608217
  endloop
endfacet
facet normal -1.4145013944350577e-08 -2.6336769598511716e-08 0.9999999999999996
  outer loop
    vertex 1.406733260263409 15.750000000000021 4.000000043608217
    vertex 1.4067332602634004 5.249999999999999 4.000000043608212
    vertex 3.0753787975412568 3.0753787975412443 4.000000043608204
  endloop
endfacet
facet normal -1.4145013944350577e-08 -2.6336769598511716e-08 0.9999999999999996
  outer loop
    vertex 1.406733260263409 15.750000000000021 4.000000043608217
    vertex 3.0753787975412568 3.0753787975412443 4.000000043608204
    vertex 3.0753787975412696 17.92462120245877 4.000000043608212
  endloop
endfacet
facet normal -1.4145013944350577e-08 -2.6336769598511716e-08 0.9999999999999996
  outer loop
    vertex 3.0753787975412696 17.92462120245877 4.000000043608212
    vertex 3.0753787975412568 3.0753787975412443 4.000000043608204
    vertex 5.250000000000014 1.4067332602633893 4.000000043608205
  endloop
endfacet
facet normal -1.4145013944350577e-08 -2.6336769598511716e-08 0.9999999999999996
  outer loop
    vertex 3.0753787975412696 17.92462120245877 4.000000043608212
    vertex 5.250000000000014 1.4067332602633893 4.000000043608205
    vertex 4.200000000000006 10.500000000000004 4.000000043608218
  endloop
endfacet
facet normal -1.4145013944350577e-08 -2.6336769598511716e-08 0.9999999999999996
  outer loop
    vertex 4.200000000000006 10.500000000000004 4.000000043608218
    vertex 5.250000000000014 1.4067332602633893 4.000000043608205
    vertex 4.414667294378876 8.86944001585412 4.000000043608211
  endloop
endfacet
facet normal -1.4145013944350577e-08 -2.6336769598511716e-08 0.9999999999999996
  outer loop
    vertex 4.414667294378876 8.86944001585412 4.000000043608211
    vertex 5.250000000000014 1.4067332602633893 4.000000043608205
    vertex 5.0440399561580485 7.349999999999989 4.000000043608212
  endloop
endfacet
facet normal -1.4145013944350577e-08 -2.6336769598511716e-08 0.9999999999999996
  outer loop
    vertex 5.0440399561580485 7.349999999999989 4.000000043608212
    vertex 5.250000000000014 1.4067332602633893 4.000000043608205
    vertex 6.045227278524742 6.0452272785247505 4.000000043608219
  endloop
endfacet
facet normal -1.4145013944350577e-08 -2.6336769598511716e-08 0.9999999999999996
  outer loop
    vertex 6.045227278524742 6.0452272785247505 4.000000043608219
    vertex 5.250000000000014 1.4067332602633893 4.000000043608205
    vertex 7.782400026423528 0.3577788239647862 4.000000043608202
  endloop
endfacet
facet normal -1.4145013944350577e-08 -2.6336769598511716e-08 0.9999999999999996
  outer loop
    vertex 6.045227278524742 6.0452272785247505 4.000000043608219
    vertex 7.782400026423528 0.3577788239647862 4.000000043608202
    vertex 7.350000000000002 5.044039956158029 4.000000043608212
  endloop
endfacet
facet normal -1.4145013944350577e-08 -2.6336769598511716e-08 0.9999999999999996
  outer loop
    vertex 7.350000000000002 5.044039956158029 4.000000043608212
    vertex 7.782400026423528 0.3577788239647862 4.000000043608202
    vertex 8.869440015854128 4.41466729437887 4.000000043608217
  endloop
endfacet
facet normal -1.4145013944350577e-08 -2.6336769598511716e-08 0.9999999999999996
  outer loop
    vertex 8.869440015854128 4.41466729437887 4.000000043608217
    vertex 7.782400026423528 0.3577788239647862 4.000000043608202
    vertex 10.499999999999986 0.0 4.000000043608207
  endloop
endfacet
facet normal -1.4145013944350577e-08 -2.6336769598511716e-08 0.9999999999999996
  outer loop
    vertex 8.869440015854128 4.41466729437887 4.000000043608217
    vertex 10.499999999999986 0.0 4.000000043608207
    vertex 10.499999999999998 4.1999999999999975 4.000000043608211
  endloop
endfacet
facet normal -1.4145013944350577e-08 -2.6336769598511716e-08 0.9999999999999996
  outer loop
    vertex 10.499999999999998 4.1999999999999975 4.000000043608211
    vertex 10.499999999999986 0.0 4.000000043608207
    vertex 13.217599973576478 0.3577788239647862 4.000000043608205
  endloop
endfacet
facet normal -1.4145013944350577e-08 -2.6336769598511716e-08 0.9999999999999996
  outer loop
    vertex 10.499999999999998 4.1999999999999975 4.000000043608211
    vertex 13.217599973576478 0.3577788239647862 4.000000043608205
    vertex 12.130559984145869 4.41466729437887 4.000000043608219
  endloop
endfacet
facet normal -1.4145013944350577e-08 -2.6336769598511716e-08 0.9999999999999996
  outer loop
    vertex 12.130559984145869 4.41466729437887 4.000000043608219
    vertex 13.217599973576478 0.3577788239647862 4.000000043608205
    vertex 13.650000000000015 5.044039956158034 4.000000043608219
  endloop
endfacet
facet normal -1.4145013944350577e-08 -2.6336769598511716e-08 0.9999999999999996
  outer loop
    vertex 13.650000000000015 5.044039956158034 4.000000043608219
    vertex 13.217599973576478 0.3577788239647862 4.000000043608205
    vertex 15.750000000000002 1.4067332602633948 4.000000043608207
  endloop
endfacet
facet normal -1.4145013944350577e-08 -2.6336769598511716e-08 0.9999999999999996
  outer loop
    vertex 13.650000000000015 5.044039956158034 4.000000043608219
    vertex 15.750000000000002 1.4067332602633948 4.000000043608207
    vertex 14.954772721475242 6.0452272785247505 4.000000043608222
  endloop
endfacet
facet normal -1.4145013944350577e-08 -2.6336769598511716e-08 0.9999999999999996
  outer loop
    vertex 14.954772721475242 6.0452272785247505 4.000000043608222
    vertex 15.750000000000002 1.4067332602633948 4.000000043608207
    vertex 15.95596004384196 7.349999999999989 4.000000043608217
  endloop
endfacet
facet normal -1.4145013944350577e-08 -2.6336769598511716e-08 0.9999999999999996
  outer loop
    vertex 15.95596004384196 7.349999999999989 4.000000043608217
    vertex 15.750000000000002 1.4067332602633948 4.000000043608207
    vertex 17.924621202458745 3.0753787975412554 4.0000000436082
  endloop
endfacet
facet normal -1.4145013944350577e-08 -2.6336769598511716e-08 0.9999999999999996
  outer loop
    vertex 15.95596004384196 7.349999999999989 4.000000043608217
    vertex 17.924621202458745 3.0753787975412554 4.0000000436082
    vertex 16.585332705621138 8.869440015854124 4.000000043608217
  endloop
endfacet
facet normal -1.4145013944350577e-08 -2.6336769598511716e-08 0.9999999999999996
  outer loop
    vertex 16.585332705621138 8.869440015854124 4.000000043608217
    vertex 17.924621202458745 3.0753787975412554 4.0000000436082
    vertex 16.80000000000001 10.5 4.0000000436082255
  endloop
endfacet
facet normal -1.4145013944350577e-08 -2.6336769598511716e-08 0.9999999999999996
  outer loop
    vertex 3.0753787975412696 17.92462120245877 4.000000043608212
    vertex 5.04403995615804 13.65 4.000000043608217
    vertex 9.7366509999995 23.50000001059468 4.000000043608215
  endloop
endfacet
facet normal -1.4145013944350577e-08 -2.6336769598511716e-08 0.9999999999999996
  outer loop
    vertex 5.04403995615804 13.65 4.000000043608217
    vertex 3.0753787975412696 17.92462120245877 4.000000043608212
    vertex 4.414667294378876 12.130559984145878 4.000000043608215
  endloop
endfacet
facet normal -1.4145013944350577e-08 -2.6336769598511716e-08 0.9999999999999996
  outer loop
    vertex 4.414667294378876 12.130559984145878 4.000000043608215
    vertex 3.0753787975412696 17.92462120245877 4.000000043608212
    vertex 4.200000000000006 10.500000000000004 4.000000043608218
  endloop
endfacet
facet normal -1.4145013944350577e-08 -2.6336769598511716e-08 0.9999999999999996
  outer loop
    vertex 9.7366509999995 23.50000001059468 4.000000043608215
    vertex 5.04403995615804 13.65 4.000000043608217
    vertex 6.045227278524742 14.954772721475246 4.000000043608218
  endloop
endfacet
facet normal -1.4145013944350577e-08 -2.6336769598511716e-08 0.9999999999999996
  outer loop
    vertex 9.7366509999995 23.50000001059468 4.000000043608215
    vertex 6.045227278524742 14.954772721475246 4.000000043608218
    vertex 7.349999999999984 15.955960043841959 4.000000043608226
  endloop
endfacet
facet normal -1.4145013944350577e-08 -2.6336769598511716e-08 0.9999999999999996
  outer loop
    vertex 9.7366509999995 23.50000001059468 4.000000043608215
    vertex 7.349999999999984 15.955960043841959 4.000000043608226
    vertex 8.869440015854103 16.585332705621127 4.000000043608222
  endloop
endfacet
facet normal -1.4145013944350577e-08 -2.6336769598511716e-08 0.9999999999999996
  outer loop
    vertex 9.7366509999995 23.50000001059468 4.000000043608215
    vertex 8.869440015854103 16.585332705621127 4.000000043608222
    vertex 9.736656306634556 20.500001021050352 4.000001184751427
  endloop
endfacet
facet normal -1.4145013944350577e-08 -2.6336769598511716e-08 0.9999999999999996
  outer loop
    vertex 9.736656306634556 20.500001021050352 4.000001184751427
    vertex 8.869440015854103 16.585332705621127 4.000000043608222
    vertex 10.49999999999999 16.799999999999997 4.000000043608218
  endloop
endfacet
facet normal -1.4145013944350577e-08 -2.6336769598511716e-08 0.9999999999999996
  outer loop
    vertex 9.736656306634556 20.500001021050352 4.000001184751427
    vertex 10.49999999999999 16.799999999999997 4.000000043608218
    vertex 20.999997616607384 20.50000000000118 4.000001230892971
  endloop
endfacet
facet normal -1.4145013944350577e-08 -2.6336769598511716e-08 0.9999999999999996
  outer loop
    vertex 20.999997616607384 20.50000000000118 4.000001230892971
    vertex 10.49999999999999 16.799999999999997 4.000000043608218
    vertex 12.130559984145869 16.585332705621134 4.000000043608226
  endloop
endfacet
facet normal -1.4145013944350577e-08 -2.6336769598511716e-08 0.9999999999999996
  outer loop
    vertex 20.999997616607384 20.50000000000118 4.000001230892971
    vertex 12.130559984145869 16.585332705621134 4.000000043608226
    vertex 13.650000000000004 15.955960043841964 4.000000043608228
  endloop
endfacet
facet normal -1.4145013944350577e-08 -2.6336769598511716e-08 0.9999999999999996
  outer loop
    vertex 20.999997616607384 20.50000000000118 4.000001230892971
    vertex 13.650000000000004 15.955960043841964 4.000000043608228
    vertex 14.954772721475242 14.954772721475253 4.000000043608219
  endloop
endfacet
facet normal -1.4145013944350577e-08 -2.6336769598511716e-08 0.9999999999999996
  outer loop
    vertex 20.999997616607384 20.50000000000118 4.000001230892971
    vertex 14.954772721475242 14.954772721475253 4.000000043608219
    vertex 15.95596004384196 13.65 4.000000043608219
  endloop
endfacet
facet normal -1.4145013944350577e-08 -2.6336769598511716e-08 0.9999999999999996
  outer loop
    vertex 20.999997616607384 20.50000000000118 4.000001230892971
    vertex 15.95596004384196 13.65 4.000000043608219
    vertex 16.585332705621138 12.130559984145886 4.000000043608215
  endloop
endfacet
facet normal -1.4145013944350577e-08 -2.6336769598511716e-08 0.9999999999999996
  outer loop
    vertex 20.999997616607384 20.50000000000118 4.000001230892971
    vertex 16.585332705621138 12.130559984145886 4.000000043608215
    vertex 16.80000000000001 10.5 4.0000000436082255
  endloop
endfacet
facet normal -1.4145013944350577e-08 -2.6336769598511716e-08 0.9999999999999996
  outer loop
    vertex 20.999997616607384 20.50000000000118 4.000001230892971
    vertex 16.80000000000001 10.5 4.0000000436082255
    vertex 17.924621202458745 3.0753787975412554 4.0000000436082
  endloop
endfacet
facet normal -1.4145013944350577e-08 -2.6336769598511716e-08 0.9999999999999996
  outer loop
    vertex 20.999997616607384 20.50000000000118 4.000001230892971
    vertex 17.924621202458745 3.0753787975412554 4.0000000436082
    vertex 19.593266739736595 5.250000000000004 4.000000043608215
  endloop
endfacet
facet normal -1.4145013944350577e-08 -2.6336769598511716e-08 0.9999999999999996
  outer loop
    vertex 20.999997616607384 20.50000000000118 4.000001230892971
    vertex 19.593266739736595 5.250000000000004 4.000000043608215
    vertex 20.64222117603521 7.782400026423531 4.000000043608217
  endloop
endfacet
facet normal -1.4145013944350577e-08 -2.6336769598511716e-08 0.9999999999999996
  outer loop
    vertex 20.999997616607384 20.50000000000118 4.000001230892971
    vertex 20.64222117603521 7.782400026423531 4.000000043608217
    vertex 21.000000000000004 10.5 4.000000043608211
  endloop
endfacet
facet normal 0.9238795325112874 -0.38268343236508817 -2.220446049250313e-16
  outer loop
    vertex 4.414667294378876 12.130559984145881 4.360821407312087e-08
    vertex 5.04403995615804 13.65 4.000000043608217
    vertex 4.414667294378876 12.130559984145878 4.000000043608215
  endloop
endfacet
facet normal 0.9238795325112874 -0.38268343236508817 -2.220446049250313e-16
  outer loop
    vertex 5.04403995615804 13.65 4.000000043608217
    vertex 4.414667294378876 12.130559984145881 4.360821407312087e-08
    vertex 5.04403995615804 13.65 4.360821689308736e-08
  endloop
endfacet
facet normal -8.62499956572254e-07 0.9999999999995568 -3.777852566888562e-07
  outer loop
    vertex 9.7366509999995 25.500001029709424 2.0
    vertex 13.598718648648214 25.499999143910106 2.0728870975383176
    vertex 13.774682146107013 25.499999691209787 2.0000006304084685
  endloop
endfacet
facet normal -8.62499956572254e-07 0.9999999999995568 -3.777852566888562e-07
  outer loop
    vertex 13.598718648648214 25.499999143910106 2.0728870975383176
    vertex 9.7366509999995 25.500001029709424 2.0
    vertex 13.018283584444013 25.499999144988827 2.5182705870714948
  endloop
endfacet
facet normal -8.62499956572254e-07 0.9999999999995568 -3.777852566888562e-07
  outer loop
    vertex 13.018283584444013 25.499999144988827 2.5182705870714948
    vertex 9.7366509999995 25.500001029709424 2.0
    vertex 12.572899070906102 25.500000156503898 3.0987064100826345
  endloop
endfacet
facet normal -8.62499956572254e-07 0.9999999999995568 -3.777852566888562e-07
  outer loop
    vertex 12.572899070906102 25.500000156503898 3.0987064100826345
    vertex 9.7366509999995 25.500001029709424 2.0
    vertex 12.292919173097708 25.500000251897994 3.7746376765648293
  endloop
endfacet
facet normal -8.62499956572254e-07 0.9999999999995568 -3.777852566888562e-07
  outer loop
    vertex 12.292919173097708 25.500000251897994 3.7746376765648293
    vertex 9.7366509999995 25.500001029709424 2.0
    vertex 12.200012994328365 25.499999292362595 4.480337242389741
  endloop
endfacet
facet normal -8.62499956572254e-07 0.9999999999995568 -3.777852566888562e-07
  outer loop
    vertex 12.200012994328365 25.499999292362595 4.480337242389741
    vertex 9.7366509999995 25.500001029709424 2.0
    vertex 9.736650924903534 25.50000049058783 25.000000000000085
  endloop
endfacet
facet normal -8.62499956572254e-07 0.9999999999995568 -3.777852566888562e-07
  outer loop
    vertex 12.200012994328365 25.499999292362595 4.480337242389741
    vertex 9.736650924903534 25.50000049058783 25.000000000000085
    vertex 12.200011094710204 25.500013868582904 25.000000162921054
  endloop
endfacet
facet normal 0.9914448613738105 0.1305261922200513 1.249000902703301e-16
  outer loop
    vertex 4.200000000000006 10.500000000000005 4.3608216188095735e-08
    vertex 4.414667294378876 8.86944001585412 4.000000043608211
    vertex 4.414667294378876 8.86944001585412 4.360821548310412e-08
  endloop
endfacet
facet normal 0.9914448613738105 0.1305261922200513 1.249000902703301e-16
  outer loop
    vertex 4.414667294378876 8.86944001585412 4.000000043608211
    vertex 4.200000000000006 10.500000000000005 4.3608216188095735e-08
    vertex 4.200000000000006 10.500000000000004 4.000000043608218
  endloop
endfacet
facet normal 0.9914448613738103 -0.13052619222005216 2.081668171172168e-17
  outer loop
    vertex 4.200000000000006 10.500000000000005 4.3608216188095735e-08
    vertex 4.414667294378876 12.130559984145878 4.000000043608215
    vertex 4.200000000000006 10.500000000000004 4.000000043608218
  endloop
endfacet
facet normal 0.9914448613738103 -0.13052619222005216 2.081668171172168e-17
  outer loop
    vertex 4.414667294378876 12.130559984145878 4.000000043608215
    vertex 4.200000000000006 10.500000000000005 4.3608216188095735e-08
    vertex 4.414667294378876 12.130559984145881 4.360821407312087e-08
  endloop
endfacet
facet normal 0.9238795325115098 -2.6057534591172876e-07 0.3826834323644624
  outer loop
    vertex 12.572899070906102 25.500000156503898 3.0987064100826345
    vertex 12.292918245187883 23.300003215527735 3.7746383609132406
    vertex 12.572898142996277 23.30000312013364 3.098707094431045
  endloop
endfacet
facet normal 0.9238795325115098 -2.6057534591172876e-07 0.3826834323644624
  outer loop
    vertex 12.292918245187883 23.300003215527735 3.7746383609132406
    vertex 12.572899070906102 25.500000156503898 3.0987064100826345
    vertex 12.292919173097708 25.500000251897994 3.7746376765648293
  endloop
endfacet
facet normal 0.7933530486797653 -1.3713863511455315e-07 0.6087618090439832
  outer loop
    vertex 13.018283584444013 25.499999144988827 2.5182705870714948
    vertex 12.572898142996277 23.30000312013364 3.098707094431045
    vertex 13.01828265653419 23.300002108618575 2.518271271419905
  endloop
endfacet
facet normal 0.7933530486797653 -1.3713863511455315e-07 0.6087618090439832
  outer loop
    vertex 12.572898142996277 23.30000312013364 3.098707094431045
    vertex 13.018283584444013 25.499999144988827 2.5182705870714948
    vertex 12.572899070906102 25.500000156503898 3.0987064100826345
  endloop
endfacet
facet normal 0.6087614290087142 -4.3566112384318956e-09 0.7933533402912403
  outer loop
    vertex 13.598717720738389 23.300002107539846 2.0728877818867275
    vertex 13.018283584444013 25.499999144988827 2.5182705870714948
    vertex 13.01828265653419 23.300002108618575 2.518271271419905
  endloop
endfacet
facet normal 0.6087614290087142 -4.3566112384318956e-09 0.7933533402912403
  outer loop
    vertex 13.018283584444013 25.499999144988827 2.5182705870714948
    vertex 13.598717720738389 23.300002107539846 2.0728877818867275
    vertex 13.598718648648214 25.499999143910106 2.0728870975383176
  endloop
endfacet
facet normal -0.13052619222003617 -7.216449660063518e-16 0.9914448613738125
  outer loop
    vertex 17.81412251438438 20.500000010595965 19.193045578897685
    vertex 17.400012064825408 23.30000207526047 19.138526862741415
    vertex 17.40001204222035 20.500000010595965 19.138526900960205
  endloop
endfacet
facet normal -0.13052619222003617 -7.216449660063518e-16 0.9914448613738125
  outer loop
    vertex 17.400012064825408 23.30000207526047 19.138526862741415
    vertex 17.81412251438438 20.500000010595965 19.193045578897685
    vertex 17.814122536989437 23.300002075260466 19.193045540678906
  endloop
endfacet
facet normal -0.6087614290087369 4.996003610813204e-16 -0.7933533402912227
  outer loop
    vertex 18.200012064825405 23.300002075260462 22.124167508796518
    vertex 18.531382892118824 20.500000010595965 21.869897750858666
    vertex 18.200012042220347 20.500000010595958 22.12416754701531
  endloop
endfacet
facet normal -0.6087614290087369 4.996003610813204e-16 -0.7933533402912227
  outer loop
    vertex 18.531382892118824 20.500000010595965 21.869897750858666
    vertex 18.200012064825405 23.300002075260462 22.124167508796518
    vertex 18.53138291472388 23.30000207526047 21.869897712639894
  endloop
endfacet
facet normal -0.7933533402912338 0.6087614290087224 2.220446049250313e-16
  outer loop
    vertex 3.0753787975412696 17.92462120245877 4.000000043608212
    vertex 1.406733260263409 15.750000000000021 4.360821407312087e-08
    vertex 1.406733260263409 15.750000000000021 4.000000043608217
  endloop
endfacet
facet normal -0.7933533402912338 0.6087614290087224 2.220446049250313e-16
  outer loop
    vertex 1.406733260263409 15.750000000000021 4.360821407312087e-08
    vertex 3.0753787975412696 17.92462120245877 4.000000043608212
    vertex 3.0753787975412696 17.924621202458766 4.36082116056502e-08
  endloop
endfacet
facet normal -0.99144486137381 -0.13052619222005463 -1.249000902703301e-16
  outer loop
    vertex 16.585332705621138 12.130559984145886 4.000000043608215
    vertex 16.80000000000001 10.5 4.3608225352986804e-08
    vertex 16.80000000000001 10.5 4.0000000436082255
  endloop
endfacet
facet normal -0.99144486137381 -0.13052619222005463 -1.249000902703301e-16
  outer loop
    vertex 16.80000000000001 10.5 4.3608225352986804e-08
    vertex 16.585332705621138 12.130559984145886 4.000000043608215
    vertex 16.585332705621138 12.130559984145883 4.36082183030706e-08
  endloop
endfacet
facet normal 0.13052619222003617 -7.216449660063518e-16 0.9914448613738125
  outer loop
    vertex 17.40001204222035 20.500000010595965 19.138526900960205
    vertex 16.985901592661374 23.300002075260466 19.193045540678906
    vertex 16.985901570056317 20.500000010595965 19.193045578897685
  endloop
endfacet
facet normal 0.13052619222003617 -7.216449660063518e-16 0.9914448613738125
  outer loop
    vertex 16.985901592661374 23.300002075260466 19.193045540678906
    vertex 17.40001204222035 20.500000010595965 19.138526900960205
    vertex 17.400012064825408 23.30000207526047 19.138526862741415
  endloop
endfacet
facet normal -0.99144486137381 0.13052619222005513 -6.938893903907228e-18
  outer loop
    vertex 16.585332705621138 8.869440015854124 4.000000043608217
    vertex 16.80000000000001 10.5 4.3608225352986804e-08
    vertex 16.585332705621138 8.86944001585412 4.3608216188095735e-08
  endloop
endfacet
facet normal -0.99144486137381 0.13052619222005513 -6.938893903907228e-18
  outer loop
    vertex 16.80000000000001 10.5 4.3608225352986804e-08
    vertex 16.585332705621138 8.869440015854124 4.000000043608217
    vertex 16.80000000000001 10.5 4.0000000436082255
  endloop
endfacet
facet normal 8.486272525872193e-08 0.9999999999999408 3.335524114689292e-07
  outer loop
    vertex 9.7366509999995 25.500001029709424 2.0
    vertex 21.000000000000004 25.500000019258678 4.360821689308736e-08
    vertex 9.7366509999995 25.500001029709424 0.0
  endloop
endfacet
facet normal 8.486272525872193e-08 0.9999999999999408 3.335524114689292e-07
  outer loop
    vertex 21.000000000000004 25.500000019258678 4.360821689308736e-08
    vertex 9.7366509999995 25.500001029709424 2.0
    vertex 14.9803491220791 25.499999963403585 1.7000008242549844
  endloop
endfacet
facet normal 8.486272525872193e-08 0.9999999999999408 3.335524114689292e-07
  outer loop
    vertex 21.000000000000004 25.500000019258678 4.360821689308736e-08
    vertex 14.9803491220791 25.499999963403585 1.7000008242549844
    vertex 21.000000000000004 25.499999966398203 1.7000000436082598
  endloop
endfacet
facet normal 8.486272525872193e-08 0.9999999999999408 3.335524114689292e-07
  outer loop
    vertex 14.9803491220791 25.499999963403585 1.7000008242549844
    vertex 9.7366509999995 25.500001029709424 2.0
    vertex 14.27464979290752 25.499999085759917 1.792907250355747
  endloop
endfacet
facet normal 8.486272525872193e-08 0.9999999999999408 3.335524114689292e-07
  outer loop
    vertex 14.27464979290752 25.499999085759917 1.792907250355747
    vertex 9.7366509999995 25.500001029709424 2.0
    vertex 13.774682146107013 25.499999691209787 2.0000006304084685
  endloop
endfacet
facet normal -0.7933533402912308 -2.220446049250313e-16 0.6087614290087264
  outer loop
    vertex 18.78565271088051 23.300002075260466 19.938526862741423
    vertex 18.531382892118824 20.500000010595965 19.60715605106173
    vertex 18.78565268827545 20.50000001059596 19.938526900960206
  endloop
endfacet
facet normal -0.7933533402912308 -2.220446049250313e-16 0.6087614290087264
  outer loop
    vertex 18.531382892118824 20.500000010595965 19.60715605106173
    vertex 18.78565271088051 23.300002075260466 19.938526862741423
    vertex 18.53138291472388 23.300002075260462 19.607156012842946
  endloop
endfacet
facet normal 0.13052529026241802 2.5302988088116157e-07 0.991444980118336
  outer loop
    vertex 14.980348194169272 23.300002927033333 1.7000015086033946
    vertex 14.27464979290752 25.499999085759917 1.792907250355747
    vertex 14.274648864997696 23.30000204938966 1.7929079347041574
  endloop
endfacet
facet normal 0.13052529026241802 2.5302988088116157e-07 0.991444980118336
  outer loop
    vertex 14.27464979290752 25.499999085759917 1.792907250355747
    vertex 14.980348194169272 23.300002927033333 1.7000015086033946
    vertex 14.9803491220791 25.499999963403585 1.7000008242549844
  endloop
endfacet
facet normal 0.9999999999999127 -4.101222113291891e-07 8.101934754861562e-08
  outer loop
    vertex 12.200012994328365 25.499999292362595 4.480337242389741
    vertex 12.200010166800379 23.300016832212638 25.000000847269465
    vertex 12.200012066418541 23.300002255992332 4.480337926738149
  endloop
endfacet
facet normal 0.9999999999999127 -4.101222113291891e-07 8.101934754861562e-08
  outer loop
    vertex 12.200010166800379 23.300016832212638 25.000000847269465
    vertex 12.200012994328365 25.499999292362595 4.480337242389741
    vertex 12.200011094710204 25.500013868582904 25.000000162921054
  endloop
endfacet
facet normal 0.3826834323655186 1.2872254612217304e-07 0.9238795325111002
  outer loop
    vertex 14.274648864997696 23.30000204938966 1.7929079347041574
    vertex 13.774682146107013 25.499999691209787 2.0000006304084685
    vertex 13.774681218197188 23.300002654839528 2.00000131475688
  endloop
endfacet
facet normal 0.3826834323655186 1.2872254612217304e-07 0.9238795325111002
  outer loop
    vertex 13.774682146107013 25.499999691209787 2.0000006304084685
    vertex 14.274648864997696 23.30000204938966 1.7929079347041574
    vertex 14.27464979290752 25.499999085759917 1.792907250355747
  endloop
endfacet
facet normal 0.9914450307493455 -3.662545076180136e-07 0.13052490567817143
  outer loop
    vertex 12.292918245187883 23.300003215527735 3.7746383609132406
    vertex 12.200012994328365 25.499999292362595 4.480337242389741
    vertex 12.200012066418541 23.300002255992332 4.480337926738149
  endloop
endfacet
facet normal 0.9914450307493455 -3.662545076180136e-07 0.13052490567817143
  outer loop
    vertex 12.200012994328365 25.499999292362595 4.480337242389741
    vertex 12.292918245187883 23.300003215527735 3.7746383609132406
    vertex 12.292919173097708 25.500000251897994 3.7746376765648293
  endloop
endfacet
facet normal -0.7933533402912308 2.220446049250313e-16 -0.6087614290087264
  outer loop
    vertex 18.531382892118824 20.500000010595965 21.869897750858666
    vertex 18.78565271088051 23.30000207526047 21.538526862741428
    vertex 18.78565268827545 20.500000010595958 21.53852690096019
  endloop
endfacet
facet normal -0.7933533402912308 2.220446049250313e-16 -0.6087614290087264
  outer loop
    vertex 18.78565271088051 23.30000207526047 21.538526862741428
    vertex 18.531382892118824 20.500000010595965 21.869897750858666
    vertex 18.53138291472388 23.30000207526047 21.869897712639894
  endloop
endfacet
facet normal -0.9238795325112904 -1.1102230246251565e-16 0.382683432365081
  outer loop
    vertex 18.945493364282854 20.500000010595965 20.32441642879617
    vertex 18.78565271088051 23.300002075260466 19.938526862741423
    vertex 18.78565268827545 20.50000001059596 19.938526900960206
  endloop
endfacet
facet normal -0.9238795325112904 -1.1102230246251565e-16 0.382683432365081
  outer loop
    vertex 18.78565271088051 23.300002075260466 19.938526862741423
    vertex 18.945493364282854 20.500000010595965 20.32441642879617
    vertex 18.945493386887915 23.300002075260466 20.324416390577387
  endloop
endfacet
facet normal -0.6087614290087369 -4.996003610813204e-16 0.7933533402912227
  outer loop
    vertex 18.531382892118824 20.500000010595965 19.60715605106173
    vertex 18.200012064825405 23.300002075260466 19.35288621668631
    vertex 18.200012042220347 20.500000010595958 19.352886254905094
  endloop
endfacet
facet normal -0.6087614290087369 -4.996003610813204e-16 0.7933533402912227
  outer loop
    vertex 18.200012064825405 23.300002075260466 19.35288621668631
    vertex 18.531382892118824 20.500000010595965 19.60715605106173
    vertex 18.53138291472388 23.300002075260462 19.607156012842946
  endloop
endfacet
facet normal -0.3826834323650867 -1.1102230246251565e-16 0.9238795325112881
  outer loop
    vertex 18.200012042220347 20.500000010595958 19.352886254905094
    vertex 17.814122536989437 23.300002075260466 19.193045540678906
    vertex 17.81412251438438 20.500000010595965 19.193045578897685
  endloop
endfacet
facet normal -0.3826834323650867 -1.1102230246251565e-16 0.9238795325112881
  outer loop
    vertex 17.814122536989437 23.300002075260466 19.193045540678906
    vertex 18.200012042220347 20.500000010595958 19.352886254905094
    vertex 18.200012064825405 23.300002075260466 19.35288621668631
  endloop
endfacet
facet normal -0.9238795325112904 1.1102230246251565e-16 -0.382683432365081
  outer loop
    vertex 18.78565271088051 23.30000207526047 21.538526862741428
    vertex 18.945493364282854 20.50000001059596 21.15263737312424
    vertex 18.78565268827545 20.500000010595958 21.53852690096019
  endloop
endfacet
facet normal -0.9238795325112904 1.1102230246251565e-16 -0.382683432365081
  outer loop
    vertex 18.945493364282854 20.50000001059596 21.15263737312424
    vertex 18.78565271088051 23.30000207526047 21.538526862741428
    vertex 18.945493386887915 23.300002075260466 21.152637334905453
  endloop
endfacet
facet normal -0.9914448613738108 -3.469446951953614e-17 0.13052619222004952
  outer loop
    vertex 19.000012064825405 23.300002075260466 20.738526862741423
    vertex 18.945493364282854 20.500000010595965 20.32441642879617
    vertex 19.000012042220344 20.500000010595965 20.738526900960203
  endloop
endfacet
facet normal -0.9914448613738108 -3.469446951953614e-17 0.13052619222004952
  outer loop
    vertex 18.945493364282854 20.500000010595965 20.32441642879617
    vertex 19.000012064825405 23.300002075260466 20.738526862741423
    vertex 18.945493386887915 23.300002075260466 20.324416390577387
  endloop
endfacet
facet normal 0.991444861373809 2.7755575615628914e-17 -0.13052619222006284
  outer loop
    vertex 15.800012042220352 20.500000010595965 20.738526900960203
    vertex 15.854530742762904 23.300002075260466 21.152637334905453
    vertex 15.854530720157848 20.50000001059596 21.15263737312424
  endloop
endfacet
facet normal 0.991444861373809 2.7755575615628914e-17 -0.13052619222006284
  outer loop
    vertex 15.854530742762904 23.300002075260466 21.152637334905453
    vertex 15.800012042220352 20.500000010595965 20.738526900960203
    vertex 15.80001206482541 23.300002075260466 20.738526862741423
  endloop
endfacet
facet normal 0.9238795325112881 1.1102230246251565e-16 -0.38268343236508695
  outer loop
    vertex 15.854530720157848 20.50000001059596 21.15263737312424
    vertex 16.01437141877031 23.30000207526047 21.538526862741428
    vertex 16.014371396165252 20.500000010595958 21.53852690096019
  endloop
endfacet
facet normal 0.9238795325112881 1.1102230246251565e-16 -0.38268343236508695
  outer loop
    vertex 16.01437141877031 23.30000207526047 21.538526862741428
    vertex 15.854530720157848 20.50000001059596 21.15263737312424
    vertex 15.854530742762904 23.300002075260466 21.152637334905453
  endloop
endfacet
facet normal 0.7933533402912308 2.220446049250313e-16 -0.6087614290087264
  outer loop
    vertex 16.01437141877031 23.30000207526047 21.538526862741428
    vertex 16.26864119232188 20.500000010595965 21.869897750858666
    vertex 16.014371396165252 20.500000010595958 21.53852690096019
  endloop
endfacet
facet normal 0.7933533402912308 2.220446049250313e-16 -0.6087614290087264
  outer loop
    vertex 16.26864119232188 20.500000010595965 21.869897750858666
    vertex 16.01437141877031 23.30000207526047 21.538526862741428
    vertex 16.268641214926937 23.30000207526047 21.869897712639894
  endloop
endfacet
facet normal 0.6087614290087435 6.106226635438361e-16 -0.7933533402912177
  outer loop
    vertex 16.268641214926937 23.30000207526047 21.869897712639894
    vertex 16.60001204222035 20.500000010595958 22.12416754701531
    vertex 16.26864119232188 20.500000010595965 21.869897750858666
  endloop
endfacet
facet normal 0.6087614290087435 6.106226635438361e-16 -0.7933533402912177
  outer loop
    vertex 16.60001204222035 20.500000010595958 22.12416754701531
    vertex 16.268641214926937 23.30000207526047 21.869897712639894
    vertex 16.600012064825407 23.300002075260462 22.124167508796518
  endloop
endfacet
facet normal 0.3826834323638987 1.2872254601115074e-07 0.9238795325117712
  outer loop
    vertex 13.774681218197188 23.300002654839528 2.00000131475688
    vertex 13.598718648648214 25.499999143910106 2.0728870975383176
    vertex 13.598717720738389 23.300002107539846 2.0728877818867275
  endloop
endfacet
facet normal 0.3826834323638987 1.2872254601115074e-07 0.9238795325117712
  outer loop
    vertex 13.598718648648214 25.499999143910106 2.0728870975383176
    vertex 13.774681218197188 23.300002654839528 2.00000131475688
    vertex 13.774682146107013 25.499999691209787 2.0000006304084685
  endloop
endfacet
facet normal -4.3227080199116135e-10 -1.0 2.3031987428367984e-10
  outer loop
    vertex 20.999997616607384 20.50000000000118 4.000001230892971
    vertex 17.81412251438438 20.500000010595965 19.193045578897685
    vertex 17.40001204222035 20.500000010595965 19.138526900960205
  endloop
endfacet
facet normal -4.3227080199116135e-10 -1.0 2.3031987428367984e-10
  outer loop
    vertex 17.81412251438438 20.500000010595965 19.193045578897685
    vertex 20.999997616607384 20.50000000000118 4.000001230892971
    vertex 18.200012042220347 20.500000010595958 19.352886254905094
  endloop
endfacet
facet normal -4.3227080199116135e-10 -1.0 2.3031987428367984e-10
  outer loop
    vertex 18.200012042220347 20.500000010595958 19.352886254905094
    vertex 20.999997616607384 20.50000000000118 4.000001230892971
    vertex 18.531382892118824 20.500000010595965 19.60715605106173
  endloop
endfacet
facet normal -4.3227080199116135e-10 -1.0 2.3031987428367984e-10
  outer loop
    vertex 18.531382892118824 20.500000010595965 19.60715605106173
    vertex 20.999997616607384 20.50000000000118 4.000001230892971
    vertex 18.78565268827545 20.50000001059596 19.938526900960206
  endloop
endfacet
facet normal -4.3227080199116135e-10 -1.0 2.3031987428367984e-10
  outer loop
    vertex 18.78565268827545 20.50000001059596 19.938526900960206
    vertex 20.999997616607384 20.50000000000118 4.000001230892971
    vertex 20.999997541511423 20.499999471474265 25.000001230893034
  endloop
endfacet
facet normal -4.3227080199116135e-10 -1.0 2.3031987428367984e-10
  outer loop
    vertex 18.78565268827545 20.50000001059596 19.938526900960206
    vertex 20.999997541511423 20.499999471474265 25.000001230893034
    vertex 18.945493364282854 20.500000010595965 20.32441642879617
  endloop
endfacet
facet normal -4.3227080199116135e-10 -1.0 2.3031987428367984e-10
  outer loop
    vertex 18.945493364282854 20.500000010595965 20.32441642879617
    vertex 20.999997541511423 20.499999471474265 25.000001230893034
    vertex 19.000012042220344 20.500000010595965 20.738526900960203
  endloop
endfacet
facet normal -4.3227080199116135e-10 -1.0 2.3031987428367984e-10
  outer loop
    vertex 19.000012042220344 20.500000010595965 20.738526900960203
    vertex 20.999997541511423 20.499999471474265 25.000001230893034
    vertex 18.945493364282854 20.50000001059596 21.15263737312424
  endloop
endfacet
facet normal -4.3227080199116135e-10 -1.0 2.3031987428367984e-10
  outer loop
    vertex 18.945493364282854 20.50000001059596 21.15263737312424
    vertex 20.999997541511423 20.499999471474265 25.000001230893034
    vertex 18.78565268827545 20.500000010595958 21.53852690096019
  endloop
endfacet
facet normal -4.3227080199116135e-10 -1.0 2.3031987428367984e-10
  outer loop
    vertex 18.78565268827545 20.500000010595958 21.53852690096019
    vertex 20.999997541511423 20.499999471474265 25.000001230893034
    vertex 18.531382892118824 20.500000010595965 21.869897750858666
  endloop
endfacet
facet normal -4.3227080199116135e-10 -1.0 2.3031987428367984e-10
  outer loop
    vertex 18.531382892118824 20.500000010595965 21.869897750858666
    vertex 20.999997541511423 20.499999471474265 25.000001230893034
    vertex 18.200012042220347 20.500000010595958 22.12416754701531
  endloop
endfacet
facet normal -4.3227080199116135e-10 -1.0 2.3031987428367984e-10
  outer loop
    vertex 18.200012042220347 20.500000010595958 22.12416754701531
    vertex 20.999997541511423 20.499999471474265 25.000001230893034
    vertex 17.81412251438438 20.500000010595954 22.284008223022717
  endloop
endfacet
facet normal -4.3227080199116135e-10 -1.0 2.3031987428367984e-10
  outer loop
    vertex 17.81412251438438 20.500000010595954 22.284008223022717
    vertex 20.999997541511423 20.499999471474265 25.000001230893034
    vertex 17.40001204222035 20.500000010595954 22.3385269009602
  endloop
endfacet
facet normal -4.3227080199116135e-10 -1.0 2.3031987428367984e-10
  outer loop
    vertex 17.40001204222035 20.500000010595954 22.3385269009602
    vertex 20.999997541511423 20.499999471474265 25.000001230893034
    vertex 9.73665623153859 20.500000481928762 25.000001184751504
  endloop
endfacet
facet normal -4.3227080199116135e-10 -1.0 2.3031987428367984e-10
  outer loop
    vertex 20.999997616607384 20.50000000000118 4.000001230892971
    vertex 9.73665623153859 20.500000481928762 25.000001184751504
    vertex 9.736656306634556 20.500001021050352 4.000001184751427
  endloop
endfacet
facet normal -4.3227080199116135e-10 -1.0 2.3031987428367984e-10
  outer loop
    vertex 9.73665623153859 20.500000481928762 25.000001184751504
    vertex 20.999997616607384 20.50000000000118 4.000001230892971
    vertex 16.26864119232188 20.500000010595965 19.60715605106173
  endloop
endfacet
facet normal -4.3227080199116135e-10 -1.0 2.3031987428367984e-10
  outer loop
    vertex 16.26864119232188 20.500000010595965 19.60715605106173
    vertex 20.999997616607384 20.50000000000118 4.000001230892971
    vertex 16.60001204222035 20.500000010595958 19.352886254905094
  endloop
endfacet
facet normal -4.3227080199116135e-10 -1.0 2.3031987428367984e-10
  outer loop
    vertex 16.60001204222035 20.500000010595958 19.352886254905094
    vertex 20.999997616607384 20.50000000000118 4.000001230892971
    vertex 16.985901570056317 20.500000010595965 19.193045578897685
  endloop
endfacet
facet normal -4.3227080199116135e-10 -1.0 2.3031987428367984e-10
  outer loop
    vertex 16.985901570056317 20.500000010595965 19.193045578897685
    vertex 20.999997616607384 20.50000000000118 4.000001230892971
    vertex 17.40001204222035 20.500000010595965 19.138526900960205
  endloop
endfacet
facet normal -4.3227080199116135e-10 -1.0 2.3031987428367984e-10
  outer loop
    vertex 9.73665623153859 20.500000481928762 25.000001184751504
    vertex 16.26864119232188 20.500000010595965 19.60715605106173
    vertex 16.014371396165252 20.50000001059596 19.938526900960206
  endloop
endfacet
facet normal -4.3227080199116135e-10 -1.0 2.3031987428367984e-10
  outer loop
    vertex 9.73665623153859 20.500000481928762 25.000001184751504
    vertex 16.014371396165252 20.50000001059596 19.938526900960206
    vertex 15.854530720157848 20.500000010595965 20.32441642879617
  endloop
endfacet
facet normal -4.3227080199116135e-10 -1.0 2.3031987428367984e-10
  outer loop
    vertex 9.73665623153859 20.500000481928762 25.000001184751504
    vertex 15.854530720157848 20.500000010595965 20.32441642879617
    vertex 15.800012042220352 20.500000010595965 20.738526900960203
  endloop
endfacet
facet normal -4.3227080199116135e-10 -1.0 2.3031987428367984e-10
  outer loop
    vertex 9.73665623153859 20.500000481928762 25.000001184751504
    vertex 15.800012042220352 20.500000010595965 20.738526900960203
    vertex 15.854530720157848 20.50000001059596 21.15263737312424
  endloop
endfacet
facet normal -4.3227080199116135e-10 -1.0 2.3031987428367984e-10
  outer loop
    vertex 9.73665623153859 20.500000481928762 25.000001184751504
    vertex 15.854530720157848 20.50000001059596 21.15263737312424
    vertex 16.014371396165252 20.500000010595958 21.53852690096019
  endloop
endfacet
facet normal -4.3227080199116135e-10 -1.0 2.3031987428367984e-10
  outer loop
    vertex 9.73665623153859 20.500000481928762 25.000001184751504
    vertex 16.014371396165252 20.500000010595958 21.53852690096019
    vertex 16.26864119232188 20.500000010595965 21.869897750858666
  endloop
endfacet
facet normal -4.3227080199116135e-10 -1.0 2.3031987428367984e-10
  outer loop
    vertex 9.73665623153859 20.500000481928762 25.000001184751504
    vertex 16.26864119232188 20.500000010595965 21.869897750858666
    vertex 16.60001204222035 20.500000010595958 22.12416754701531
  endloop
endfacet
facet normal -4.3227080199116135e-10 -1.0 2.3031987428367984e-10
  outer loop
    vertex 9.73665623153859 20.500000481928762 25.000001184751504
    vertex 16.60001204222035 20.500000010595958 22.12416754701531
    vertex 16.985901570056317 20.500000010595954 22.2840082230227
  endloop
endfacet
facet normal -4.3227080199116135e-10 -1.0 2.3031987428367984e-10
  outer loop
    vertex 9.73665623153859 20.500000481928762 25.000001184751504
    vertex 16.985901570056317 20.500000010595954 22.2840082230227
    vertex 17.40001204222035 20.500000010595954 22.3385269009602
  endloop
endfacet
endsolid Untitled-58797072
