solid Untitled-5876ad11
facet normal 6.598204305730846e-16 -0.24839260324513154 -0.9686594420399293
  outer loop
    vertex 9.777222267778484 72.51572170707394 2.0885924381602488
    vertex 30.6383132399461 66.91642927235384 3.5244147342418635
    vertex 9.361686760053894 66.91642927235385 3.524414734241846
  endloop
endfacet
facet normal 6.598204305730846e-16 -0.24839260324513154 -0.9686594420399293
  outer loop
    vertex 30.6383132399461 66.91642927235384 3.5244147342418635
    vertex 9.777222267778484 72.51572170707394 2.0885924381602488
    vertex 19.98488308158283 72.51572170707394 2.0885924381602403
  endloop
endfacet
facet normal 6.598204305730846e-16 -0.24839260324513154 -0.9686594420399293
  outer loop
    vertex 30.6383132399461 66.91642927235384 3.5244147342418635
    vertex 19.98488308158283 72.51572170707394 2.0885924381602403
    vertex 20.015116918417164 72.51572170707392 2.08859243816026
  endloop
endfacet
facet normal 6.598204305730846e-16 -0.24839260324513154 -0.9686594420399293
  outer loop
    vertex 30.6383132399461 66.91642927235384 3.5244147342418635
    vertex 20.015116918417164 72.51572170707392 2.08859243816026
    vertex 30.22277773222151 72.51572170707395 2.08859243816026
  endloop
endfacet
facet normal 7.955755162575119e-16 1.4013708901565898e-09 -1.0
  outer loop
    vertex 8.965331042971625 70.0 3.6769275069126195e-08
    vertex 33.251396936206866 43.76192259496409 1.6919798895287383e-14
    vertex 6.748603063793131 43.761922594964105 0.0
  endloop
endfacet
facet normal 7.955755162575119e-16 1.4013708901565898e-09 -1.0
  outer loop
    vertex 33.251396936206866 43.76192259496409 1.6919798895287383e-14
    vertex 8.965331042971625 70.0 3.6769275069126195e-08
    vertex 31.03466895702837 70.0 3.6769297628858054e-08
  endloop
endfacet
facet normal -7.593021925879585e-16 0.27082089437898255 0.962629753938537
  outer loop
    vertex 31.87000533051881 66.05339389320822 4.644758402204067
    vertex 8.965331042971625 73.17974074377838 2.6398716637358737
    vertex 8.129994669481183 66.05339389320824 4.64475840220405
  endloop
endfacet
facet normal -7.593021925879585e-16 0.27082089437898255 0.962629753938537
  outer loop
    vertex 8.965331042971625 73.17974074377838 2.6398716637358737
    vertex 31.87000533051881 66.05339389320822 4.644758402204067
    vertex 31.03466895702837 73.17974074377838 2.639871663735896
  endloop
endfacet
facet normal 5.353902130613198e-16 -0.23743277444201527 -0.9714039724135202
  outer loop
    vertex 8.907049703022741 64.8445571463527 3.9107872042325464
    vertex 34.11499346833405 53.32903158187671 6.725438226441447
    vertex 5.885006531665947 53.32903158187673 6.7254382264414305
  endloop
endfacet
facet normal 5.353902130613198e-16 -0.23743277444201527 -0.9714039724135202
  outer loop
    vertex 34.11499346833405 53.32903158187671 6.725438226441447
    vertex 8.907049703022741 64.8445571463527 3.9107872042325464
    vertex 31.092950296977254 64.84455714635268 3.9107872042325633
  endloop
endfacet
facet normal -0.997673828629359 -0.005474917983388771 0.06794819306730433
  outer loop
    vertex 38.99999999999999 39.0 20.59994365700808
    vertex 38.91646597527903 3.4499135768073597 16.50898103997125
    vertex 38.99999999999999 2.8213949728213614 17.68485664239061
  endloop
endfacet
facet normal -0.984695151228429 -0.04875187115904712 0.167328163217413
  outer loop
    vertex 37.655647185008746 42.42569892014212 12.309926961431664
    vertex 37.43320143691019 16.508980923313608 3.4499136934649823
    vertex 38.810394370874654 39.536851761478836 18.263719982186107
  endloop
endfacet
facet normal -4.0932978781288124e-16 0.25881904510252013 0.9659258262890684
  outer loop
    vertex 37.05841075023301 17.733725794705194 2.7428069122784384
    vertex 4.254427804418912 22.545349508710494 1.4535362238282692
    vertex 2.9415892497669844 17.733725794705208 2.7428069122784215
  endloop
endfacet
facet normal -4.0932978781288124e-16 0.25881904510252013 0.9659258262890684
  outer loop
    vertex 4.254427804418912 22.545349508710494 1.4535362238282692
    vertex 37.05841075023301 17.733725794705194 2.7428069122784384
    vertex 35.74557219558108 22.54534950871048 1.453536223828286
  endloop
endfacet
facet normal -0.9994475321606452 -0.02123007528625572 0.025571749281895057
  outer loop
    vertex 30.22277773222151 72.51572170707395 2.08859243816026
    vertex 30.22277773222151 70.76939952893046 0.638767832602552
    vertex 30.576648925763937 54.54532363754147 1.0000000018520874
  endloop
endfacet
facet normal -0.8616242891948643 -0.13394182739832494 0.48955405334104013
  outer loop
    vertex 34.67215891068334 51.27575178373652 7.424937347040164
    vertex 35.34440569135416 24.263548782695942 1.2175744282453815
    vertex 35.74557219558108 22.54534950871048 1.453536223828286
  endloop
endfacet
facet normal 6.708912582054429e-16 -0.18332425899099286 -0.9830524991400018
  outer loop
    vertex 9.361686760053894 66.91642927235385 3.524414734241846
    vertex 31.092950296977254 64.84455714635268 3.9107872042325633
    vertex 8.907049703022741 64.8445571463527 3.9107872042325464
  endloop
endfacet
facet normal 6.708912582054429e-16 -0.18332425899099286 -0.9830524991400018
  outer loop
    vertex 31.092950296977254 64.84455714635268 3.9107872042325633
    vertex 9.361686760053894 66.91642927235385 3.524414734241846
    vertex 30.6383132399461 66.91642927235384 3.5244147342418635
  endloop
endfacet
facet normal -5.985559574939518e-16 0.01115470849511488 0.9999377843037982
  outer loop
    vertex 35.34440569135416 24.263548782695942 1.2175744282453815
    vertex 7.602018231297989 42.773139519155414 1.0110924927989136
    vertex 4.655594308645835 24.263548782695953 1.2175744282453647
  endloop
endfacet
facet normal -5.985559574939518e-16 0.01115470849511488 0.9999377843037982
  outer loop
    vertex 7.602018231297989 42.773139519155414 1.0110924927989136
    vertex 35.34440569135416 24.263548782695942 1.2175744282453815
    vertex 32.397981768702 42.7731395191554 1.0110924927989304
  endloop
endfacet
facet normal 5.093527103964074e-17 0.8819212643483537 0.47139673682600003
  outer loop
    vertex 0.9999999999999981 2.821394972821373 17.684856642390592
    vertex 38.91646597527903 3.4499135768073597 16.50898103997125
    vertex 1.0835340247209595 3.4499135768073708 16.508981039971232
  endloop
endfacet
facet normal 5.093527103964074e-17 0.8819212643483537 0.47139673682600003
  outer loop
    vertex 38.91646597527903 3.4499135768073597 16.50898103997125
    vertex 0.9999999999999981 2.821394972821373 17.684856642390592
    vertex 38.99999999999999 2.8213949728213614 17.68485664239061
  endloop
endfacet
facet normal 0.990737465169428 0.0867391075263005 -0.10447776000277503
  outer loop
    vertex 31.03466895702837 73.17974074377838 2.639871663735896
    vertex 31.87000533051881 66.05339389320822 4.644758402204067
    vertex 31.03466895702837 70.0 3.6769297628858054e-08
  endloop
endfacet
facet normal -4.8990354241077e-16 0.13605388722817877 0.9907014382598331
  outer loop
    vertex 35.74557219558108 22.54534950871048 1.453536223828286
    vertex 4.655594308645835 24.263548782695953 1.2175744282453647
    vertex 4.254427804418912 22.545349508710494 1.4535362238282692
  endloop
endfacet
facet normal -4.8990354241077e-16 0.13605388722817877 0.9907014382598331
  outer loop
    vertex 4.655594308645835 24.263548782695953 1.2175744282453647
    vertex 35.74557219558108 22.54534950871048 1.453536223828286
    vertex 35.34440569135416 24.263548782695942 1.2175744282453815
  endloop
endfacet
facet normal -7.433204590457022e-16 -6.732275091122942e-11 1.0
  outer loop
    vertex 32.0853644103547 44.76192259433725 1.0000000011934418
    vertex 9.423351074236058 54.54532363754148 1.0000000018520703
    vertex 7.914635589645291 44.761922594337264 1.000000001193425
  endloop
endfacet
facet normal -7.433204590457022e-16 -6.732275091122942e-11 1.0
  outer loop
    vertex 9.423351074236058 54.54532363754148 1.0000000018520703
    vertex 32.0853644103547 44.76192259433725 1.0000000011934418
    vertex 30.576648925763937 54.54532363754147 1.0000000018520874
  endloop
endfacet
facet normal -1.0 0.0 0.0
  outer loop
    vertex 38.99999999999999 39.0 26.74313611665765
    vertex 38.99999999999999 2.8213949728213614 17.68485664239061
    vertex 38.99999999999999 1.175875602419366 26.74313611665765
  endloop
endfacet
facet normal -1.0 0.0 0.0
  outer loop
    vertex 38.99999999999999 2.8213949728213614 17.68485664239061
    vertex 38.99999999999999 39.0 26.74313611665765
    vertex 38.99999999999999 39.0 20.59994365700808
  endloop
endfacet
facet normal 4.311426424385443e-16 -0.32247459088456176 -0.946578120512953
  outer loop
    vertex 5.885006531665947 53.32903158187673 6.7254382264414305
    vertex 34.67215891068334 51.27575178373652 7.424937347040164
    vertex 5.327841089316653 51.275751783736524 7.424937347040147
  endloop
endfacet
facet normal 4.311426424385443e-16 -0.32247459088456176 -0.946578120512953
  outer loop
    vertex 34.67215891068334 51.27575178373652 7.424937347040164
    vertex 5.885006531665947 53.32903158187673 6.7254382264414305
    vertex 34.11499346833405 53.32903158187671 6.725438226441447
  endloop
endfacet
facet normal -0.7826789909047963 -0.12069830401814675 0.6106107734092093
  outer loop
    vertex 30.6383132399461 66.91642927235384 3.5244147342418635
    vertex 30.576648925763937 54.54532363754147 1.0000000018520874
    vertex 32.0853644103547 44.76192259433725 1.0000000011934418
  endloop
endfacet
facet normal -0.9120820400740574 -0.11325229247049708 0.39405617673692517
  outer loop
    vertex 34.11499346833405 53.32903158187671 6.725438226441447
    vertex 35.34440569135416 24.263548782695942 1.2175744282453815
    vertex 34.67215891068334 51.27575178373652 7.424937347040164
  endloop
endfacet
facet normal -7.274212060999616e-17 -0.8996859566715716 -0.4365377181504011
  outer loop
    vertex 37.655647185008746 42.42569892014212 12.309926961431664
    vertex 1.1896056291253438 39.53685176147884 18.26371998218609
    vertex 2.3443528149912454 42.425698920142125 12.309926961431646
  endloop
endfacet
facet normal -7.274212060999616e-17 -0.8996859566715716 -0.4365377181504011
  outer loop
    vertex 1.1896056291253438 39.53685176147884 18.26371998218609
    vertex 37.655647185008746 42.42569892014212 12.309926961431664
    vertex 38.810394370874654 39.536851761478836 18.263719982186107
  endloop
endfacet
facet normal -0.884411093491936 -0.10946263838003908 0.45369036633730586
  outer loop
    vertex 30.6383132399461 66.91642927235384 3.5244147342418635
    vertex 32.0853644103547 44.76192259433725 1.0000000011934418
    vertex 31.092950296977254 64.84455714635268 3.9107872042325633
  endloop
endfacet
facet normal -0.8906191010161154 -0.12591736787614258 0.4369696023436764
  outer loop
    vertex 37.125919635319406 44.271260221220906 10.527470122741802
    vertex 35.74557219558108 22.54534950871048 1.453536223828286
    vertex 37.05841075023301 17.733725794705194 2.7428069122784384
  endloop
endfacet
facet normal 5.286424642757415e-16 0.6387678175156458 -0.7693995550468552
  outer loop
    vertex 8.965331042971625 73.17974074377838 2.6398716637358737
    vertex 9.777222267778484 72.51572170707394 2.0885924381602488
    vertex 8.965331042971625 70.0 3.6769275069126195e-08
  endloop
endfacet
facet normal 5.286424642757415e-16 0.6387678175156458 -0.7693995550468552
  outer loop
    vertex 9.777222267778484 72.51572170707394 2.0885924381602488
    vertex 8.965331042971625 73.17974074377838 2.6398716637358737
    vertex 31.03466895702837 73.17974074377838 2.639871663735896
  endloop
endfacet
facet normal 5.286424642757415e-16 0.6387678175156458 -0.7693995550468552
  outer loop
    vertex 9.777222267778484 72.51572170707394 2.0885924381602488
    vertex 31.03466895702837 73.17974074377838 2.639871663735896
    vertex 19.98488308158283 72.51572170707394 2.0885924381602403
  endloop
endfacet
facet normal 5.286424642757415e-16 0.6387678175156458 -0.7693995550468552
  outer loop
    vertex 19.98488308158283 72.51572170707394 2.0885924381602403
    vertex 31.03466895702837 73.17974074377838 2.639871663735896
    vertex 20.015116918417164 72.51572170707392 2.08859243816026
  endloop
endfacet
facet normal 5.286424642757415e-16 0.6387678175156458 -0.7693995550468552
  outer loop
    vertex 20.015116918417164 72.51572170707392 2.08859243816026
    vertex 31.03466895702837 73.17974074377838 2.639871663735896
    vertex 30.22277773222151 72.51572170707395 2.08859243816026
  endloop
endfacet
facet normal 5.286424642757415e-16 0.6387678175156458 -0.7693995550468552
  outer loop
    vertex 30.22277773222151 72.51572170707395 2.08859243816026
    vertex 31.03466895702837 73.17974074377838 2.639871663735896
    vertex 30.22277773222151 70.76939952893046 0.638767832602552
  endloop
endfacet
facet normal 5.286424642757415e-16 0.6387678175156458 -0.7693995550468552
  outer loop
    vertex 8.965331042971625 70.0 3.6769275069126195e-08
    vertex 9.777222267778484 70.76939952893046 0.6387678326025295
    vertex 31.03466895702837 70.0 3.6769297628858054e-08
  endloop
endfacet
facet normal 5.286424642757415e-16 0.6387678175156458 -0.7693995550468552
  outer loop
    vertex 9.777222267778484 70.76939952893046 0.6387678326025295
    vertex 8.965331042971625 70.0 3.6769275069126195e-08
    vertex 9.777222267778484 72.51572170707394 2.0885924381602488
  endloop
endfacet
facet normal 5.286424642757415e-16 0.6387678175156458 -0.7693995550468552
  outer loop
    vertex 31.03466895702837 70.0 3.6769297628858054e-08
    vertex 9.777222267778484 70.76939952893046 0.6387678326025295
    vertex 30.22277773222151 70.76939952893046 0.638767832602552
  endloop
endfacet
facet normal 5.286424642757415e-16 0.6387678175156458 -0.7693995550468552
  outer loop
    vertex 31.03466895702837 70.0 3.6769297628858054e-08
    vertex 30.22277773222151 70.76939952893046 0.638767832602552
    vertex 31.03466895702837 73.17974074377838 2.639871663735896
  endloop
endfacet
facet normal -3.207419567408101e-16 0.40498548695593645 0.9143231132127543
  outer loop
    vertex 38.496261902623395 43.76192259496409 11.846778722910493
    vertex 4.5980963942432105 52.59506038390522 7.934274973296967
    vertex 1.5037380973766004 43.761922594964105 11.846778722910477
  endloop
endfacet
facet normal -3.207419567408101e-16 0.40498548695593645 0.9143231132127543
  outer loop
    vertex 4.5980963942432105 52.59506038390522 7.934274973296967
    vertex 38.496261902623395 43.76192259496409 11.846778722910493
    vertex 35.401903605756786 52.59506038390521 7.934274973296984
  endloop
endfacet
facet normal -1.9144817408213595e-16 -0.98078528040323 -0.19509032201613036
  outer loop
    vertex 39.99999999999999 2.0357000144342607 16.50898103997125
    vertex 0.0 1.127986593019159e-14 26.743136116657624
    vertex 0.0 2.0357000144342723 16.508981039971232
  endloop
endfacet
facet normal -1.9144817408213595e-16 -0.98078528040323 -0.19509032201613036
  outer loop
    vertex 0.0 1.127986593019159e-14 26.743136116657624
    vertex 39.99999999999999 2.0357000144342607 16.50898103997125
    vertex 39.99999999999999 0.0 26.74313611665764
  endloop
endfacet
facet normal -2.96838577110305e-16 -1.0 1.1090370343020429e-32
  outer loop
    vertex 38.99999999999999 39.0 20.59994365700808
    vertex 0.9999999999999981 39.000000000000014 26.743136116657638
    vertex 0.9999999999999981 39.000000000000014 20.599943657008065
  endloop
endfacet
facet normal -2.96838577110305e-16 -1.0 1.1090370343020429e-32
  outer loop
    vertex 0.9999999999999981 39.000000000000014 26.743136116657638
    vertex 38.99999999999999 39.0 20.59994365700808
    vertex 38.99999999999999 39.0 26.74313611665765
  endloop
endfacet
facet normal 0.9907234794715036 0.08370142471217892 -0.10705633435265997
  outer loop
    vertex 31.03466895702837 70.0 3.6769297628858054e-08
    vertex 31.87000533051881 66.05339389320822 4.644758402204067
    vertex 33.251396936206866 43.76192259496409 1.6919798895287383e-14
  endloop
endfacet
facet normal -0.9968243867658024 -0.0067880041424123365 0.07934144534065722
  outer loop
    vertex 38.810394370874654 39.536851761478836 18.263719982186107
    vertex 38.91646597527903 3.4499135768073597 16.50898103997125
    vertex 38.99999999999999 39.0 20.59994365700808
  endloop
endfacet
facet normal 1.0 0.0 0.0
  outer loop
    vertex 39.99999999999999 2.0357000144342607 16.50898103997125
    vertex 39.99999999999999 40.0 26.74313611665765
    vertex 39.99999999999999 0.0 26.74313611665764
  endloop
endfacet
facet normal 1.0 0.0 0.0
  outer loop
    vertex 39.99999999999999 40.0 26.74313611665765
    vertex 39.99999999999999 2.0357000144342607 16.50898103997125
    vertex 39.99999999999999 40.0 19.59994365700808
  endloop
endfacet
facet normal 0.9944936129063797 0.008504198109336425 -0.10445157970530122
  outer loop
    vertex 39.99999999999999 40.0 19.59994365700808
    vertex 39.99999999999999 2.0357000144342607 16.50898103997125
    vertex 38.35610738834769 16.508980923313608 2.035700131091889
  endloop
endfacet
facet normal 0.9848516400343572 0.05422783762662252 -0.1647015141034767
  outer loop
    vertex 38.496261902623395 43.76192259496409 11.846778722910493
    vertex 39.99999999999999 40.0 19.59994365700808
    vertex 38.35610738834769 16.508980923313608 2.035700131091889
  endloop
endfacet
facet normal -0.8566597684650546 -0.13079939491673162 0.49902460799324905
  outer loop
    vertex 34.11499346833405 53.32903158187671 6.725438226441447
    vertex 32.397981768702 42.7731395191554 1.0110924927989304
    vertex 35.34440569135416 24.263548782695942 1.2175744282453815
  endloop
endfacet
facet normal -0.9411842618459217 -0.10204228580289836 0.3221173034185951
  outer loop
    vertex 37.655647185008746 42.42569892014212 12.309926961431664
    vertex 37.05841075023301 17.733725794705194 2.7428069122784384
    vertex 37.43320143691019 16.508980923313608 3.4499136934649823
  endloop
endfacet
facet normal -1.1480492020908683e-16 0.707106781186548 0.707106781186547
  outer loop
    vertex 1.0835340247209595 3.4499135768073708 16.508981039971232
    vertex 37.43320143691019 16.508980923313608 3.4499136934649823
    vertex 2.566798563089805 16.50898092331362 3.4499136934649655
  endloop
endfacet
facet normal -1.1480492020908683e-16 0.707106781186548 0.707106781186547
  outer loop
    vertex 37.43320143691019 16.508980923313608 3.4499136934649823
    vertex 1.0835340247209595 3.4499135768073708 16.508981039971232
    vertex 38.91646597527903 3.4499135768073597 16.50898103997125
  endloop
endfacet
facet normal 1.237211150179195e-16 -0.6947025369811124 -0.719297146603548
  outer loop
    vertex 2.874080364680588 44.27126022122092 10.527470122741786
    vertex 37.655647185008746 42.42569892014212 12.309926961431664
    vertex 2.3443528149912454 42.425698920142125 12.309926961431646
  endloop
endfacet
facet normal 1.237211150179195e-16 -0.6947025369811124 -0.719297146603548
  outer loop
    vertex 37.655647185008746 42.42569892014212 12.309926961431664
    vertex 2.874080364680588 44.27126022122092 10.527470122741786
    vertex 37.125919635319406 44.271260221220906 10.527470122741802
  endloop
endfacet
facet normal 0.9054447909323903 0.1396446163750657 -0.40083551700274844
  outer loop
    vertex 35.401903605756786 52.59506038390521 7.934274973296984
    vertex 38.496261902623395 43.76192259496409 11.846778722910493
    vertex 36.51616831999797 23.252456289897026 0.22879135243669696
  endloop
endfacet
facet normal -0.9726162621041333 -0.06314007178300739 0.2236759665807223
  outer loop
    vertex 37.125919635319406 44.271260221220906 10.527470122741802
    vertex 37.05841075023301 17.733725794705194 2.7428069122784384
    vertex 37.655647185008746 42.42569892014212 12.309926961431664
  endloop
endfacet
facet normal 0.9054217902721122 0.1396563155156445 -0.4008833935660569
  outer loop
    vertex 35.401903605756786 52.59506038390521 7.934274973296984
    vertex 36.51616831999797 23.252456289897026 0.22879135243669696
    vertex 33.251396936206866 43.76192259496409 1.6919798895287383e-14
  endloop
endfacet
facet normal 0.984695151228429 -0.04875187115904712 0.167328163217413
  outer loop
    vertex 2.3443528149912454 42.425698920142125 12.309926961431646
    vertex 1.1896056291253438 39.53685176147884 18.26371998218609
    vertex 2.566798563089805 16.50898092331362 3.4499136934649655
  endloop
endfacet
facet normal 0.9994475321606452 -0.021230075286255732 0.02557174928189469
  outer loop
    vertex 9.777222267778484 72.51572170707394 2.0885924381602488
    vertex 9.423351074236058 54.54532363754148 1.0000000018520703
    vertex 9.777222267778484 70.76939952893046 0.6387678326025295
  endloop
endfacet
facet normal 0.8616242891948643 -0.13394182739832494 0.48955405334104013
  outer loop
    vertex 5.327841089316653 51.275751783736524 7.424937347040147
    vertex 4.254427804418912 22.545349508710494 1.4535362238282692
    vertex 4.655594308645835 24.263548782695953 1.2175744282453647
  endloop
endfacet
facet normal -0.990737465169428 0.08673910752630047 -0.10447776000277534
  outer loop
    vertex 8.965331042971625 73.17974074377838 2.6398716637358737
    vertex 8.965331042971625 70.0 3.6769275069126195e-08
    vertex 8.129994669481183 66.05339389320824 4.64475840220405
  endloop
endfacet
facet normal 5.574269723816044e-16 -0.011154708495114844 -0.9999377843037982
  outer loop
    vertex 6.748603063793131 43.761922594964105 0.0
    vertex 36.51616831999797 23.252456289897026 0.22879135243669696
    vertex 3.483831680002019 23.252456289897037 0.22879135243668003
  endloop
endfacet
facet normal 5.574269723816044e-16 -0.011154708495114844 -0.9999377843037982
  outer loop
    vertex 36.51616831999797 23.252456289897026 0.22879135243669696
    vertex 6.748603063793131 43.761922594964105 0.0
    vertex 33.251396936206866 43.76192259496409 1.6919798895287383e-14
  endloop
endfacet
facet normal 1.0 0.0 0.0
  outer loop
    vertex 0.9999999999999981 2.821394972821373 17.684856642390592
    vertex 0.9999999999999981 39.000000000000014 26.743136116657638
    vertex 0.9999999999999981 1.1758756024193773 26.743136116657624
  endloop
endfacet
facet normal 1.0 0.0 0.0
  outer loop
    vertex 0.9999999999999981 39.000000000000014 26.743136116657638
    vertex 0.9999999999999981 2.821394972821373 17.684856642390592
    vertex 0.9999999999999981 39.000000000000014 20.599943657008065
  endloop
endfacet
facet normal 0.7826789909047963 -0.12069830401814675 0.6106107734092093
  outer loop
    vertex 9.361686760053894 66.91642927235385 3.524414734241846
    vertex 7.914635589645291 44.761922594337264 1.000000001193425
    vertex 9.423351074236058 54.54532363754148 1.0000000018520703
  endloop
endfacet
facet normal 0.9120820400740574 -0.11325229247049708 0.39405617673692517
  outer loop
    vertex 5.885006531665947 53.32903158187673 6.7254382264414305
    vertex 5.327841089316653 51.275751783736524 7.424937347040147
    vertex 4.655594308645835 24.263548782695953 1.2175744282453647
  endloop
endfacet
facet normal 2.8199664825478977e-16 1.0 8.176861903146576e-31
  outer loop
    vertex 0.0 40.000000000000014 26.74313611665763
    vertex 39.99999999999999 40.0 19.59994365700808
    vertex 0.0 40.000000000000014 19.599943657008062
  endloop
endfacet
facet normal 2.8199664825478977e-16 1.0 8.176861903146576e-31
  outer loop
    vertex 39.99999999999999 40.0 19.59994365700808
    vertex 0.0 40.000000000000014 26.74313611665763
    vertex 39.99999999999999 40.0 26.74313611665765
  endloop
endfacet
facet normal 7.090581489785626e-17 0.8996859566715715 0.4365377181504015
  outer loop
    vertex 0.0 40.000000000000014 19.599943657008062
    vertex 38.496261902623395 43.76192259496409 11.846778722910493
    vertex 1.5037380973766004 43.761922594964105 11.846778722910477
  endloop
endfacet
facet normal 7.090581489785626e-17 0.8996859566715715 0.4365377181504015
  outer loop
    vertex 38.496261902623395 43.76192259496409 11.846778722910493
    vertex 0.0 40.000000000000014 19.599943657008062
    vertex 39.99999999999999 40.0 19.59994365700808
  endloop
endfacet
facet normal 0.884411093491936 -0.10946263838003908 0.45369036633730586
  outer loop
    vertex 9.361686760053894 66.91642927235385 3.524414734241846
    vertex 8.907049703022741 64.8445571463527 3.9107872042325464
    vertex 7.914635589645291 44.761922594337264 1.000000001193425
  endloop
endfacet
facet normal 0.8906191010161154 -0.12591736787614258 0.4369696023436764
  outer loop
    vertex 2.874080364680588 44.27126022122092 10.527470122741786
    vertex 2.9415892497669844 17.733725794705208 2.7428069122784215
    vertex 4.254427804418912 22.545349508710494 1.4535362238282692
  endloop
endfacet
facet normal -0.9907234794715036 0.08370142471217899 -0.10705633435266022
  outer loop
    vertex 8.965331042971625 70.0 3.6769275069126195e-08
    vertex 6.748603063793131 43.761922594964105 0.0
    vertex 8.129994669481183 66.05339389320824 4.64475840220405
  endloop
endfacet
facet normal 0.9968243867658024 -0.0067880041424123365 0.07934144534065722
  outer loop
    vertex 1.1896056291253438 39.53685176147884 18.26371998218609
    vertex 0.9999999999999981 39.000000000000014 20.599943657008065
    vertex 1.0835340247209595 3.4499135768073708 16.508981039971232
  endloop
endfacet
facet normal -1.0 0.0 0.0
  outer loop
    vertex 0.0 40.000000000000014 26.74313611665763
    vertex 0.0 2.0357000144342723 16.508981039971232
    vertex 0.0 1.127986593019159e-14 26.743136116657624
  endloop
endfacet
facet normal -1.0 0.0 0.0
  outer loop
    vertex 0.0 2.0357000144342723 16.508981039971232
    vertex 0.0 40.000000000000014 26.74313611665763
    vertex 0.0 40.000000000000014 19.599943657008062
  endloop
endfacet
facet normal -0.9944936129063797 0.008504198109336425 -0.10445157970530122
  outer loop
    vertex 0.0 40.000000000000014 19.599943657008062
    vertex 1.6438926116523076 16.50898092331362 2.0357001310918723
    vertex 0.0 2.0357000144342723 16.508981039971232
  endloop
endfacet
facet normal -0.9848516400343572 0.05422783762662252 -0.1647015141034767
  outer loop
    vertex 1.5037380973766004 43.761922594964105 11.846778722910477
    vertex 1.6438926116523076 16.50898092331362 2.0357001310918723
    vertex 0.0 40.000000000000014 19.599943657008062
  endloop
endfacet
facet normal 0.8566597684650546 -0.13079939491673162 0.49902460799324905
  outer loop
    vertex 5.885006531665947 53.32903158187673 6.7254382264414305
    vertex 4.655594308645835 24.263548782695953 1.2175744282453647
    vertex 7.602018231297989 42.773139519155414 1.0110924927989136
  endloop
endfacet
facet normal 0.9411842618459217 -0.10204228580289836 0.3221173034185951
  outer loop
    vertex 2.3443528149912454 42.425698920142125 12.309926961431646
    vertex 2.566798563089805 16.50898092331362 3.4499136934649655
    vertex 2.9415892497669844 17.733725794705208 2.7428069122784215
  endloop
endfacet
facet normal -0.9054447909323905 0.13964461637506573 -0.40083551700274855
  outer loop
    vertex 4.5980963942432105 52.59506038390522 7.934274973296967
    vertex 3.483831680002019 23.252456289897037 0.22879135243668003
    vertex 1.5037380973766004 43.761922594964105 11.846778722910477
  endloop
endfacet
facet normal 0.9726162621041335 -0.0631400717830074 0.22367596658072236
  outer loop
    vertex 2.874080364680588 44.27126022122092 10.527470122741786
    vertex 2.3443528149912454 42.425698920142125 12.309926961431646
    vertex 2.9415892497669844 17.733725794705208 2.7428069122784215
  endloop
endfacet
facet normal -0.9054217902721122 0.1396563155156445 -0.4008833935660569
  outer loop
    vertex 4.5980963942432105 52.59506038390522 7.934274973296967
    vertex 6.748603063793131 43.761922594964105 0.0
    vertex 3.483831680002019 23.252456289897037 0.22879135243668003
  endloop
endfacet
facet normal 1.1168117249361928e-16 -0.7071067811865479 -0.7071067811865472
  outer loop
    vertex 38.35610738834769 16.508980923313608 2.035700131091889
    vertex 0.0 2.0357000144342723 16.508981039971232
    vertex 1.6438926116523076 16.50898092331362 2.0357001310918723
  endloop
endfacet
facet normal 1.1168117249361928e-16 -0.7071067811865479 -0.7071067811865472
  outer loop
    vertex 0.0 2.0357000144342723 16.508981039971232
    vertex 38.35610738834769 16.508980923313608 2.035700131091889
    vertex 39.99999999999999 2.0357000144342607 16.50898103997125
  endloop
endfacet
facet normal 3.8445440098327534e-16 -0.25881904510252024 -0.9659258262890684
  outer loop
    vertex 3.483831680002019 23.252456289897037 0.22879135243668003
    vertex 38.35610738834769 16.508980923313608 2.035700131091889
    vertex 1.6438926116523076 16.50898092331362 2.0357001310918723
  endloop
endfacet
facet normal 3.8445440098327534e-16 -0.25881904510252024 -0.9659258262890684
  outer loop
    vertex 38.35610738834769 16.508980923313608 2.035700131091889
    vertex 3.483831680002019 23.252456289897037 0.22879135243668003
    vertex 36.51616831999797 23.252456289897026 0.22879135243669696
  endloop
endfacet
facet normal 0.8068315641646369 -0.12360390120065945 0.5777065887417444
  outer loop
    vertex 8.907049703022741 64.8445571463527 3.9107872042325464
    vertex 7.602018231297989 42.773139519155414 1.0110924927989136
    vertex 7.914635589645291 44.761922594337264 1.000000001193425
  endloop
endfacet
facet normal -0.9054447909323956 0.13964461637505962 -0.40083551700273856
  outer loop
    vertex 1.5037380973766004 43.761922594964105 11.846778722910477
    vertex 3.483831680002019 23.252456289897037 0.22879135243668003
    vertex 1.6438926116523076 16.50898092331362 2.0357001310918723
  endloop
endfacet
facet normal -0.905434066874272 0.13963506827640348 -0.4008630667085218
  outer loop
    vertex 8.129994669481183 66.05339389320824 4.64475840220405
    vertex 6.748603063793131 43.761922594964105 0.0
    vertex 4.5980963942432105 52.59506038390522 7.934274973296967
  endloop
endfacet
facet normal 0.9850971877539201 -0.029661487903613896 0.16942174244960925
  outer loop
    vertex 9.777222267778484 72.51572170707394 2.0885924381602488
    vertex 9.361686760053894 66.91642927235385 3.524414734241846
    vertex 9.423351074236058 54.54532363754148 1.0000000018520703
  endloop
endfacet
facet normal -5.024072891301063e-16 0.23743277444201535 0.9714039724135202
  outer loop
    vertex 35.401903605756786 52.59506038390521 7.934274973296984
    vertex 8.129994669481183 66.05339389320824 4.64475840220405
    vertex 4.5980963942432105 52.59506038390522 7.934274973296967
  endloop
endfacet
facet normal -5.024072891301063e-16 0.23743277444201535 0.9714039724135202
  outer loop
    vertex 8.129994669481183 66.05339389320824 4.64475840220405
    vertex 35.401903605756786 52.59506038390521 7.934274973296984
    vertex 31.87000533051881 66.05339389320822 4.644758402204067
  endloop
endfacet
facet normal 0.9944477037736992 -0.008025051705843052 0.10492551169441951
  outer loop
    vertex 1.1896056291253438 39.53685176147884 18.26371998218609
    vertex 1.0835340247209595 3.4499135768073708 16.508981039971232
    vertex 2.566798563089805 16.50898092331362 3.4499136934649655
  endloop
endfacet
facet normal 0.8943888181161698 -0.1228090172942577 0.43010067112244765
  outer loop
    vertex 5.327841089316653 51.275751783736524 7.424937347040147
    vertex 2.874080364680588 44.27126022122092 10.527470122741786
    vertex 4.254427804418912 22.545349508710494 1.4535362238282692
  endloop
endfacet
facet normal 0.873829612510836 -0.11377424143221514 0.4727337837363504
  outer loop
    vertex 8.907049703022741 64.8445571463527 3.9107872042325464
    vertex 5.885006531665947 53.32903158187673 6.7254382264414305
    vertex 7.602018231297989 42.773139519155414 1.0110924927989136
  endloop
endfacet
facet normal -4.4354787404389626e-16 -1.5473848436895467e-16 1.0
  outer loop
    vertex 0.0 1.127986593019159e-14 26.743136116657624
    vertex 0.9999999999999981 1.1758756024193773 26.743136116657624
    vertex 0.0 40.000000000000014 26.74313611665763
  endloop
endfacet
facet normal -4.4354787404389626e-16 -1.5473848436895467e-16 1.0
  outer loop
    vertex 0.9999999999999981 1.1758756024193773 26.743136116657624
    vertex 0.0 1.127986593019159e-14 26.743136116657624
    vertex 39.99999999999999 0.0 26.74313611665764
  endloop
endfacet
facet normal -4.4354787404389626e-16 -1.5473848436895467e-16 1.0
  outer loop
    vertex 0.9999999999999981 1.1758756024193773 26.743136116657624
    vertex 39.99999999999999 0.0 26.74313611665764
    vertex 38.99999999999999 1.175875602419366 26.74313611665765
  endloop
endfacet
facet normal -4.4354787404389626e-16 -1.5473848436895467e-16 1.0
  outer loop
    vertex 38.99999999999999 1.175875602419366 26.74313611665765
    vertex 39.99999999999999 0.0 26.74313611665764
    vertex 38.99999999999999 39.0 26.74313611665765
  endloop
endfacet
facet normal -4.4354787404389626e-16 -1.5473848436895467e-16 1.0
  outer loop
    vertex 0.0 40.000000000000014 26.74313611665763
    vertex 0.9999999999999981 39.000000000000014 26.743136116657638
    vertex 39.99999999999999 40.0 26.74313611665765
  endloop
endfacet
facet normal -4.4354787404389626e-16 -1.5473848436895467e-16 1.0
  outer loop
    vertex 0.9999999999999981 39.000000000000014 26.743136116657638
    vertex 0.0 40.000000000000014 26.74313611665763
    vertex 0.9999999999999981 1.1758756024193773 26.743136116657624
  endloop
endfacet
facet normal -4.4354787404389626e-16 -1.5473848436895467e-16 1.0
  outer loop
    vertex 39.99999999999999 40.0 26.74313611665765
    vertex 0.9999999999999981 39.000000000000014 26.743136116657638
    vertex 38.99999999999999 39.0 26.74313611665765
  endloop
endfacet
facet normal -4.4354787404389626e-16 -1.5473848436895467e-16 1.0
  outer loop
    vertex 39.99999999999999 40.0 26.74313611665765
    vertex 38.99999999999999 39.0 26.74313611665765
    vertex 39.99999999999999 0.0 26.74313611665764
  endloop
endfacet
facet normal 1.997364653110393e-16 0.9838974369425736 0.17873397432451005
  outer loop
    vertex 0.9999999999999981 1.1758756024193773 26.743136116657624
    vertex 38.99999999999999 2.8213949728213614 17.68485664239061
    vertex 0.9999999999999981 2.821394972821373 17.684856642390592
  endloop
endfacet
facet normal 1.997364653110393e-16 0.9838974369425736 0.17873397432451005
  outer loop
    vertex 38.99999999999999 2.8213949728213614 17.68485664239061
    vertex 0.9999999999999981 1.1758756024193773 26.743136116657624
    vertex 38.99999999999999 1.175875602419366 26.74313611665765
  endloop
endfacet
facet normal -2.615568870310345e-16 0.499999999999998 0.8660254037844398
  outer loop
    vertex 37.43320143691019 16.508980923313608 3.4499136934649823
    vertex 2.9415892497669844 17.733725794705208 2.7428069122784215
    vertex 2.566798563089805 16.50898092331362 3.4499136934649655
  endloop
endfacet
facet normal -2.615568870310345e-16 0.499999999999998 0.8660254037844398
  outer loop
    vertex 2.9415892497669844 17.733725794705208 2.7428069122784215
    vertex 37.43320143691019 16.508980923313608 3.4499136934649823
    vertex 37.05841075023301 17.733725794705194 2.7428069122784384
  endloop
endfacet
facet normal -0.8068315641646369 -0.12360390120065945 0.5777065887417444
  outer loop
    vertex 31.092950296977254 64.84455714635268 3.9107872042325633
    vertex 32.0853644103547 44.76192259433725 1.0000000011934418
    vertex 32.397981768702 42.7731395191554 1.0110924927989304
  endloop
endfacet
facet normal 0.997673828629359 -0.005474917983388771 0.06794819306730433
  outer loop
    vertex 0.9999999999999981 39.000000000000014 20.599943657008065
    vertex 0.9999999999999981 2.821394972821373 17.684856642390592
    vertex 1.0835340247209595 3.4499135768073708 16.508981039971232
  endloop
endfacet
facet normal -6.883866937026905e-16 0.005577440401034049 0.9999844459583225
  outer loop
    vertex 32.397981768702 42.7731395191554 1.0110924927989304
    vertex 7.914635589645291 44.761922594337264 1.000000001193425
    vertex 7.602018231297989 42.773139519155414 1.0110924927989136
  endloop
endfacet
facet normal -6.883866937026905e-16 0.005577440401034049 0.9999844459583225
  outer loop
    vertex 7.914635589645291 44.761922594337264 1.000000001193425
    vertex 32.397981768702 42.7731395191554 1.0110924927989304
    vertex 32.0853644103547 44.76192259433725 1.0000000011934418
  endloop
endfacet
facet normal 0.9054447909323956 0.13964461637505962 -0.40083551700273856
  outer loop
    vertex 38.496261902623395 43.76192259496409 11.846778722910493
    vertex 38.35610738834769 16.508980923313608 2.035700131091889
    vertex 36.51616831999797 23.252456289897026 0.22879135243669696
  endloop
endfacet
facet normal 3.4030549551921343e-16 -0.40498548695593617 -0.9143231132127544
  outer loop
    vertex 5.327841089316653 51.275751783736524 7.424937347040147
    vertex 37.125919635319406 44.271260221220906 10.527470122741802
    vertex 2.874080364680588 44.27126022122092 10.527470122741786
  endloop
endfacet
facet normal 3.4030549551921343e-16 -0.40498548695593617 -0.9143231132127544
  outer loop
    vertex 37.125919635319406 44.271260221220906 10.527470122741802
    vertex 5.327841089316653 51.275751783736524 7.424937347040147
    vertex 34.67215891068334 51.27575178373652 7.424937347040164
  endloop
endfacet
facet normal -1.9039730362384188e-16 -0.9745988807380119 -0.22395763363684282
  outer loop
    vertex 38.810394370874654 39.536851761478836 18.263719982186107
    vertex 0.9999999999999981 39.000000000000014 20.599943657008065
    vertex 1.1896056291253438 39.53685176147884 18.26371998218609
  endloop
endfacet
facet normal -1.9039730362384188e-16 -0.9745988807380119 -0.22395763363684282
  outer loop
    vertex 0.9999999999999981 39.000000000000014 20.599943657008065
    vertex 38.810394370874654 39.536851761478836 18.263719982186107
    vertex 38.99999999999999 39.0 20.59994365700808
  endloop
endfacet
facet normal 0.9054340668742717 0.13963506827640346 -0.4008630667085217
  outer loop
    vertex 31.87000533051881 66.05339389320822 4.644758402204067
    vertex 35.401903605756786 52.59506038390521 7.934274973296984
    vertex 33.251396936206866 43.76192259496409 1.6919798895287383e-14
  endloop
endfacet
facet normal -0.9850971877539203 -0.029661487903613764 0.16942174244960861
  outer loop
    vertex 30.22277773222151 72.51572170707395 2.08859243816026
    vertex 30.576648925763937 54.54532363754147 1.0000000018520874
    vertex 30.6383132399461 66.91642927235384 3.5244147342418635
  endloop
endfacet
facet normal -0.9944477037736992 -0.008025051705843052 0.10492551169441951
  outer loop
    vertex 38.810394370874654 39.536851761478836 18.263719982186107
    vertex 37.43320143691019 16.508980923313608 3.4499136934649823
    vertex 38.91646597527903 3.4499135768073597 16.50898103997125
  endloop
endfacet
facet normal -0.8943888181161698 -0.1228090172942577 0.43010067112244765
  outer loop
    vertex 34.67215891068334 51.27575178373652 7.424937347040164
    vertex 35.74557219558108 22.54534950871048 1.453536223828286
    vertex 37.125919635319406 44.271260221220906 10.527470122741802
  endloop
endfacet
facet normal -0.873829612510836 -0.11377424143221514 0.4727337837363504
  outer loop
    vertex 31.092950296977254 64.84455714635268 3.9107872042325633
    vertex 32.397981768702 42.7731395191554 1.0110924927989304
    vertex 34.11499346833405 53.32903158187671 6.725438226441447
  endloop
endfacet
facet normal -9.398825530329175e-16 0.022259675469064977 0.9997522227272176
  outer loop
    vertex 30.576648925763937 54.54532363754147 1.0000000018520874
    vertex 9.777222267778484 70.76939952893046 0.6387678326025295
    vertex 9.423351074236058 54.54532363754148 1.0000000018520703
  endloop
endfacet
facet normal -9.398825530329175e-16 0.022259675469064977 0.9997522227272176
  outer loop
    vertex 9.777222267778484 70.76939952893046 0.6387678326025295
    vertex 30.576648925763937 54.54532363754147 1.0000000018520874
    vertex 30.22277773222151 70.76939952893046 0.638767832602552
  endloop
endfacet
endsolid Untitled-5876ad11
